<svg width="600" height="401" viewBox="0 0 600 401" fill="none" xmlns="http://www.w3.org/2000/svg">
<g clip-path="url(#clip0)">
<path d="M60.0948 71.0989C76.3144 71.0989 89.463 57.9468 89.463 41.7229C89.463 25.499 76.3144 12.3469 60.0948 12.3469C43.8751 12.3469 30.7265 25.499 30.7265 41.7229C30.7265 57.9468 43.8751 71.0989 60.0948 71.0989Z" fill="#596AFF"/>
<path opacity="0.1" d="M56.5066 101.524C68.8376 129.383 53.108 161.464 34.5925 185.621C28.3954 193.721 21.554 202.214 20.6949 212.374C19.6589 224.803 28.0733 236.228 38.0543 243.696C56.2602 257.307 81.1244 261.515 102.792 254.647C121.516 248.714 137.258 235.311 156.147 229.909C187.732 220.86 221.213 235.861 248.263 254.552C267.41 267.765 287.915 283.865 310.998 281.034C327.239 279.044 341.023 267.638 350.379 254.211C354.896 247.728 358.825 240.461 365.401 236.089C369.311 233.485 373.904 232.108 378.497 231.122C420.436 222.156 464.946 244.038 506.33 232.784C534.283 225.201 556.57 203.086 570.43 177.64C584.289 152.194 590.758 123.463 596.147 94.9966C599.975 74.7765 603.152 52.9324 594.353 34.3363C585.041 14.6469 563.487 2.71077 541.826 0.473917C520.164 -1.76293 498.44 4.41052 478.484 13.1178C453.55 24.024 429.109 39.2902 401.895 39.3407C383.361 39.3787 365.685 32.2637 347.966 26.8359C318.339 17.7684 287.53 13.2631 256.829 9.10537C227.435 5.12454 197.751 1.42173 168.181 3.77232C147.258 5.43416 128.781 13.4337 108.478 17.1365C95.2432 19.5503 81.9457 17.7684 68.9577 21.8124C52.9627 26.8169 36.5129 38.4119 35.6285 56.6732C34.7947 74.0561 49.9684 86.7442 56.5066 101.524Z" fill="#596AFF"/>
<path d="M380.227 126.331C377.53 119.299 370.575 102.769 365.995 106.048C360.208 110.193 371.781 128.505 371.781 128.505C372.11 131.867 365.603 138.862 362.116 142.349C362.116 142.071 362.116 141.913 362.116 141.913C362.083 142.046 362.032 142.174 361.965 142.293L361.674 142.135C361.596 142.413 361.456 142.671 361.263 142.887C361.263 142.413 361.232 142.135 361.232 142.135C360.562 144.972 348.876 148.567 348.876 148.567C348.876 148.567 348.56 148.567 348.016 148.567C344.769 148.567 336.317 147.834 332.4 141.566C330.375 138.17 327.783 135.146 324.738 132.625C323.695 131.808 322.428 131.327 321.105 131.247C310.284 130.552 301.522 125.074 299.773 123.905L299.45 123.684L299.381 123.886C298.97 123.298 298.572 122.673 298.2 122.028L298.01 121.681C300.629 120.366 302.833 118.35 304.378 115.859C305.922 113.367 306.746 110.496 306.759 107.565C306.759 107.457 306.759 107.343 306.759 107.236C307.711 105.59 308.212 103.722 308.212 101.821V99.9252L310.682 97.7263C311.813 96.7216 312.982 95.66 313.557 94.2762C313.787 93.7162 313.891 93.1119 313.86 92.507C313.915 91.9887 313.837 91.4649 313.634 90.985C313.431 90.5052 313.108 90.0851 312.697 89.7646C310.802 88.4566 307.644 89.7646 306.273 87.9448C305.641 87.1234 305.755 86.0049 305.445 85.0382C304.814 83.073 302.539 82.0115 300.436 81.9799C298.332 81.9483 296.317 82.7128 294.296 83.2879C290.049 84.4939 285.616 84.9094 281.219 84.5137C280.03 84.302 278.809 84.345 277.637 84.6401C276.922 84.9359 276.286 85.3961 275.781 85.9834C275.276 86.5707 274.917 87.2686 274.732 88.0206C274.575 88.5857 274.482 89.1664 274.454 89.752C272.691 91.7403 271.716 94.3044 271.712 96.9617V101.821C271.716 104.415 272.645 106.922 274.334 108.892C274.533 111.178 275.228 113.393 276.37 115.384C277.512 117.374 279.074 119.092 280.948 120.417C280.948 120.543 280.948 120.672 280.948 120.802L281.03 120.853C280.928 122.359 280.695 123.854 280.335 125.32V124.998C280.335 124.998 271.491 129.706 262.015 129.819H260.973C259.104 129.756 257.286 130.438 255.919 131.715C253.114 134.356 248.2 138.533 245.18 138.533C244.548 138.533 228.604 141.648 225.963 142.166L221.03 137.332L220.878 137.617L220.587 137.332C220.048 137.374 219.512 137.452 218.983 137.566C216.456 134.571 211.402 127.608 210.234 118.262C210.234 118.262 221.143 105.833 217.132 94.2509C213.708 84.381 204.277 105.536 201.598 111.912C201.13 113.024 201.071 114.267 201.434 115.419L210.297 143.992C209.453 146.207 209.211 148.605 209.596 150.943H209.495L215.951 159.227C215.951 159.227 220.809 161.3 228.408 161.262C233.978 161.271 239.498 160.211 244.668 158.14H246.166L245.881 158.248H253.569L258.459 173.04C258.294 174.386 255.932 193.171 254.037 197.373C253.474 198.777 253.22 200.286 253.291 201.797C253.391 204.699 253.864 207.577 254.7 210.359L258.983 210.201L258.819 210.535C255.193 217.973 249.135 231.223 245.553 243.608L239.318 256.246L243.992 312.925H244.182L244.542 312.982C245.047 313.058 245.805 313.171 246.804 313.298L246.437 313.93L236.134 330.99C236.134 330.99 228.787 346.035 245.041 343.198C245.041 343.198 251.049 341.454 253.5 331.193L264.188 321.165C264.188 321.165 264.687 314.505 261.661 311.844C261.472 308.767 260.992 299.782 261.731 297.621C262.622 295.005 257.941 264.921 257.941 264.921C257.941 264.921 274.858 229.82 285.104 228.948C285.855 228.896 286.609 228.994 287.322 229.239C295.742 231.981 305.944 252.347 308.945 258.685L309.084 258.975V259.032L309.198 259.279V259.348L309.299 259.563V259.62L309.387 259.816V259.86L309.463 260.018V260.081L309.52 260.201V260.252L309.558 260.34V260.391V260.448L309.589 260.523L310.922 299.984L311.055 300.054H311.118L311.004 300.869L310.423 304.944C310.423 304.944 317.77 320.425 317.322 322.384C316.873 324.343 322.217 332.197 329.785 330.017C337.353 327.837 332.849 315.547 332.849 315.547L325.559 300.521L325.237 299.851C325.963 299.406 326.648 298.896 327.284 298.329C327.284 298.329 325.06 282.197 327.284 278.709C329.507 275.221 330.177 259.304 330.177 259.304C330.177 259.304 328.617 248.404 325.944 243.608L314.75 203.642C318.105 206.763 320.714 207.983 322.893 207.901H323.253C324.211 207.919 325.157 207.683 325.995 207.218C326.445 206.964 326.868 206.666 327.258 206.327C327.333 206.263 327.403 206.193 327.467 206.119C330.581 203.503 323.904 193.254 320.12 187.162C316.475 181.286 321.497 165.318 321.876 164.13C322.213 163.883 322.575 163.671 322.956 163.498C323.74 163.163 324.581 162.98 325.433 162.961C329.059 163.088 333.519 165.173 339.04 166.222C342.877 166.875 346.765 167.177 350.657 167.125H350.884C352.432 167.125 353.835 167.094 354.972 167.05C356.009 167.009 357.024 166.734 357.941 166.247C358.726 165.789 359.438 165.214 360.051 164.541L369.741 153.591L369.488 153.711C369.958 152.469 369.958 151.098 369.488 149.856L379.728 132.164C380.245 131.292 380.559 130.315 380.645 129.305C380.731 128.295 380.589 127.278 380.227 126.331Z" fill="url(#paint0_linear)"/>
<path d="M265.18 319.667L254.864 329.556C252.502 339.666 246.696 341.378 246.696 341.378C231.011 344.171 238.099 329.373 238.099 329.373L248.048 312.533L249.274 310.454C249.274 310.454 256.368 308.306 261.093 309.595C261.689 309.759 262.241 310.057 262.704 310.467C265.666 313.039 265.18 319.667 265.18 319.667Z" fill="#444176"/>
<path d="M328.787 328.482C321.478 330.63 316.323 322.896 316.784 320.956C317.246 319.016 310.107 303.782 310.107 303.782L310.663 299.763L311.181 296.041L323.184 296.901L324.314 299.276L331.352 314.094C331.352 314.094 336.096 326.333 328.787 328.482Z" fill="#444176"/>
<path opacity="0.1" d="M262.817 312.148C261.687 314.088 252.521 313.108 248.054 312.502L249.28 310.423C249.28 310.423 256.374 308.274 261.099 309.563C261.696 309.727 262.247 310.025 262.71 310.435C262.773 311.484 262.817 312.148 262.817 312.148Z" fill="#373737"/>
<path opacity="0.1" d="M324.327 299.264C318.181 303.358 311.636 300.262 310.651 299.75L311.169 296.029L323.171 296.888L324.327 299.264Z" fill="#373737"/>
<path d="M325.995 277.755C323.847 281.192 325.995 297.103 325.995 297.103C318.901 303.554 310.524 298.821 310.524 298.821L309.261 259.917C309.261 259.917 295.294 227.887 285.407 228.746C275.521 229.606 259.191 264.214 259.191 264.214C259.191 264.214 263.702 293.874 262.843 296.439C261.984 299.005 262.843 311.484 262.843 311.484C261.339 314.062 245.654 311.484 245.654 311.484L241.143 255.595L247.132 243.121C250.575 230.914 256.424 217.846 259.924 210.517C261.661 206.871 262.824 204.646 262.824 204.646L274.258 202.264L311.371 194.568L324.706 243.121C327.284 247.848 328.787 258.596 328.787 258.596C328.787 258.596 328.143 274.317 325.995 277.755Z" fill="#565387"/>
<g opacity="0.1">
<path opacity="0.1" d="M313.961 298.822L312.697 259.917C312.697 259.917 298.73 227.887 288.844 228.746C288.402 228.789 287.967 228.887 287.549 229.037C297.189 232.24 309.261 259.917 309.261 259.917L310.524 298.822C313.16 300.165 316.131 300.707 319.071 300.382C317.289 300.168 315.559 299.639 313.961 298.822Z" fill="#373737"/>
<path opacity="0.1" d="M249.065 311.503L244.555 255.614L250.569 243.121C254.011 230.914 259.861 217.846 263.361 210.517C265.098 206.871 266.26 204.646 266.26 204.646L277.694 202.264L311.573 195.219L311.39 194.543L274.258 202.264L262.824 204.646C262.824 204.646 261.661 206.871 259.924 210.517C256.412 217.846 250.575 230.939 247.132 243.121L241.118 255.588L245.629 311.478C245.629 311.478 254.195 312.887 259.274 312.577C255.855 312.392 252.448 312.033 249.065 311.503Z" fill="#373737"/>
</g>
<path d="M222.931 138.362C222.931 138.362 210.682 138.994 212.401 151.903L215.837 152.333L220.992 146.747L223.569 142.021V140.947L222.931 138.362Z" fill="#CED2DF"/>
<path opacity="0.1" d="M222.931 138.362C222.931 138.362 210.682 138.994 212.401 151.903L215.837 152.333L220.992 146.747L223.569 142.021V140.947L222.931 138.362Z" fill="#373737"/>
<path d="M359.198 143.089C359.198 143.089 369.305 148.46 366.721 154.696L363.5 155.96L359.204 153.597L358.572 148.011L359.002 144.144L359.198 143.089Z" fill="#CED2DF"/>
<path opacity="0.1" d="M359.198 143.089C359.198 143.089 369.305 148.46 366.721 154.696L363.5 155.96L359.204 153.597L358.572 148.011L359.002 144.144L359.198 143.089Z" fill="#373737"/>
<path d="M294.302 87.6288H285.704C278.346 87.6288 272.382 93.5952 272.382 100.955C272.382 108.315 278.346 114.281 285.704 114.281H294.302C301.66 114.281 307.625 108.315 307.625 100.955C307.625 93.5952 301.66 87.6288 294.302 87.6288Z" fill="#88455E"/>
<path d="M222.849 140.188L215.325 152.194L214.694 150.058L204.473 116.746C204.123 115.61 204.179 114.388 204.63 113.289C207.214 107.009 216.323 86.1187 219.627 95.8812C223.493 107.255 212.963 119.526 212.963 119.526C214.163 129.484 219.754 136.7 221.952 139.203C222.508 139.854 222.849 140.188 222.849 140.188Z" fill="#EC8C9C"/>
<path d="M357.587 145.345C357.587 145.345 369.406 134.167 368.958 129.655C368.958 129.655 357.783 111.602 363.373 107.539C367.795 104.304 374.51 120.607 377.113 127.538C377.457 128.462 377.595 129.449 377.518 130.431C377.44 131.414 377.149 132.367 376.665 133.225L362.539 158.241L357.587 145.345Z" fill="#EC8C9C"/>
<path d="M281.08 114.18C281.08 114.18 283.228 127.936 276.999 133.099C270.771 138.261 294.839 138.23 294.839 138.23L303.436 130.274C303.436 130.274 293.55 121.03 296.557 114.155L281.08 114.18Z" fill="#EC8C9C"/>
<path opacity="0.1" d="M280.651 129.87C280.651 129.87 289.893 136.751 299.128 129.011L314.169 160.181L313.31 198.226C313.31 198.226 282.148 214.346 269.255 204.463C256.361 194.581 267.107 189.418 267.107 189.418L264.1 160.187L267.322 141.269C267.322 141.269 273.121 132.239 273.557 132.239C273.992 132.239 280.651 129.87 280.651 129.87Z" fill="#373737"/>
<path d="M280.651 129.44C280.651 129.44 289.893 136.334 299.135 128.581L314.176 159.751L313.317 197.797C313.317 197.797 282.154 213.916 269.261 204.033C256.368 194.151 267.113 188.988 267.113 188.988L264.106 159.758L267.328 140.839C267.328 140.839 273.127 131.81 273.563 131.81C273.999 131.81 280.651 129.44 280.651 129.44Z" fill="#EBF1F6"/>
<path opacity="0.1" d="M280.651 126.224C280.651 126.224 271.889 131.216 262.375 130.969C261.483 130.941 260.594 131.091 259.76 131.41C258.926 131.729 258.163 132.211 257.517 132.827C254.807 135.43 250.063 139.55 247.126 139.55C246.494 139.55 228.212 143.203 228.212 143.203L223.38 138.369C223.38 138.369 216.178 152.447 212.742 151.802L218.977 159.973C218.977 159.973 230.796 165.129 246.267 158.898H255.294L260.019 173.514C260.019 173.514 257.656 193.291 255.723 197.588C253.79 201.885 256.355 210.27 256.355 210.27L273.329 209.638C273.329 209.638 274.188 201.253 275.477 200.16C276.766 199.067 270.966 162.115 270.966 162.115C270.966 162.115 267.1 141.263 281.282 133.743L280.651 126.224Z" fill="#373737"/>
<path opacity="0.1" d="M274.251 202.289C273.626 204.839 273.181 207.43 272.919 210.043L259.924 210.535C261.661 206.889 262.824 204.665 262.824 204.665L274.251 202.289Z" fill="#373737"/>
<path opacity="0.1" d="M222.849 140.188L215.325 152.194L214.694 150.058C217.454 147.316 220.689 141.585 221.977 139.196C222.508 139.854 222.849 140.188 222.849 140.188Z" fill="#373737"/>
<path d="M280.651 126.224C280.651 126.224 271.453 131.216 261.946 130.969C261.053 130.941 260.164 131.091 259.33 131.41C258.496 131.729 257.734 132.211 257.088 132.827C254.378 135.43 249.634 139.55 246.696 139.55C246.064 139.55 227.783 143.203 227.783 143.203L222.931 138.362C222.931 138.362 215.73 152.441 212.293 151.796L218.528 159.966C218.528 159.966 230.347 165.122 245.818 158.892H254.845L259.57 173.501C259.57 173.501 257.208 193.279 255.275 197.576C253.342 201.872 255.906 210.257 255.906 210.257L272.881 209.626C272.881 209.626 273.74 201.241 275.028 200.147C276.317 199.054 270.518 162.102 270.518 162.102C270.518 162.102 266.652 141.25 280.834 133.731L280.651 126.224Z" fill="#CED2DF"/>
<path opacity="0.1" d="M299.135 124.922C299.135 124.922 307.903 131.608 319.608 132.378C320.889 132.459 322.114 132.933 323.114 133.737C326.067 136.242 328.568 139.234 330.512 142.583C335.237 150.324 346.841 149.464 346.841 149.464C346.841 149.464 358.124 145.92 358.768 143.146C358.768 143.146 359.09 158.311 366.185 154.646L356.854 165.4C356.266 166.08 355.545 166.632 354.736 167.022C353.926 167.412 353.046 167.632 352.148 167.669C348.642 167.808 342.552 167.852 337.41 166.854C329.672 165.35 324.087 161.698 320.006 164.92C320.006 164.92 314.637 181.684 318.288 187.706C321.939 193.728 328.395 203.825 325.382 206.409C322.369 208.994 318.718 208.773 312.704 202.542C306.69 196.312 306.039 185.779 306.039 185.779L307.543 158.696C307.543 158.696 301.744 138.274 296.172 134.192L299.135 124.922Z" fill="#373737"/>
<path opacity="0.1" d="M367.037 154.374L357.682 165.173C357.06 165.889 356.29 166.463 355.426 166.854C354.658 167.201 353.83 167.396 352.988 167.429C349.482 167.574 343.392 167.618 338.25 166.614C331.011 165.205 325.654 161.919 321.649 164.137C321.365 164.293 321.094 164.473 320.84 164.674C320.84 164.674 315.471 181.437 319.122 187.459C322.773 193.481 329.229 203.578 326.216 206.163C325.712 206.607 325.146 206.975 324.536 207.256C321.832 208.476 318.478 207.42 313.538 202.296C307.524 196.059 306.873 185.532 306.873 185.532L308.376 158.45C308.376 158.45 302.577 138.027 297.006 133.946L299.463 125.131C301.156 126.281 309.608 131.683 320.057 132.372C321.338 132.453 322.562 132.927 323.563 133.731C326.515 136.236 329.017 139.228 330.96 142.577C335.685 150.317 347.29 149.458 347.29 149.458C350.072 148.57 352.789 147.489 355.42 146.223C357.069 145.414 358.522 144.529 359.21 143.695C359.404 143.478 359.544 143.218 359.621 142.937C359.621 142.937 359.949 158.026 367.037 154.374Z" fill="#373737"/>
<path d="M366.608 154.589L357.258 165.4C356.744 165.994 356.128 166.49 355.439 166.866C354.556 167.346 353.575 167.616 352.571 167.656C349.065 167.802 342.975 167.846 337.833 166.841C330.853 165.483 325.616 162.374 321.668 164.149C321.217 164.346 320.792 164.598 320.404 164.901C320.404 164.901 315.035 181.665 318.686 187.687C322.337 193.709 328.793 203.806 325.78 206.39C325.39 206.726 324.967 207.02 324.517 207.269C321.737 208.804 318.301 207.9 313.089 202.523C307.075 196.287 306.425 185.759 306.425 185.759L307.928 158.677C307.928 158.677 302.129 138.255 296.557 134.173L299.135 124.929L299.444 125.143C301.137 126.293 309.589 131.696 320.038 132.385C321.319 132.465 322.543 132.94 323.544 133.743C326.496 136.249 328.998 139.241 330.941 142.59C335.666 150.33 347.271 149.471 347.271 149.471C350.053 148.583 352.77 147.502 355.401 146.236C357.353 145.237 358.945 144.144 359.191 143.146C359.191 143.146 359.191 143.342 359.191 143.689C359.381 146.299 360.329 157.818 366.608 154.589Z" fill="#CED2DF"/>
<path opacity="0.1" d="M296.747 114.503H280.954C281.301 117.014 281.401 119.554 281.251 122.085C283.662 123.782 286.489 124.79 289.429 125.002C292.369 125.213 295.312 124.62 297.941 123.286C296.425 120.48 295.502 117.296 296.747 114.503Z" fill="#373737"/>
<path d="M290.537 124.707C299.2 124.707 306.222 117.683 306.222 109.018C306.222 100.353 299.2 93.3284 290.537 93.3284C281.874 93.3284 274.852 100.353 274.852 109.018C274.852 117.683 281.874 124.707 290.537 124.707Z" fill="#EC8C9C"/>
<path opacity="0.1" d="M287.277 106.225C289.027 106.017 290.777 105.397 292.502 105.745C294.068 106.061 295.401 107.141 296.968 107.47C299.987 108.102 302.792 105.877 305.073 103.805L310 99.3186C311.093 98.3266 312.217 97.284 312.779 95.9191C313.342 94.5542 313.146 92.7597 311.946 91.9003C310.145 90.6366 307.044 91.9003 305.742 90.1058C305.155 89.297 305.243 88.2102 304.94 87.2434C304.308 85.3099 302.135 84.2546 300.101 84.2293C298.067 84.2041 296.121 84.9497 294.176 85.4931C290.077 86.6824 285.791 87.0918 281.541 86.7C280.394 86.4899 279.216 86.5309 278.086 86.8201C277.391 87.117 276.775 87.5729 276.287 88.1513C275.8 88.7296 275.456 89.4142 275.281 90.15C274.308 93.5875 275.97 99.129 277.637 102.206C279.305 105.284 283.948 106.636 287.277 106.225Z" fill="#373737"/>
<path d="M287.277 105.795C289.027 105.587 290.777 104.968 292.502 105.315C294.068 105.631 295.401 106.712 296.968 107.04C299.987 107.672 302.792 105.448 305.073 103.375L310 98.8889C311.093 97.8969 312.217 96.8543 312.779 95.4894C313.342 94.1245 313.146 92.33 311.946 91.4707C310.145 90.2069 307.044 91.4707 305.742 89.6761C305.155 88.8673 305.243 87.7805 304.94 86.8137C304.308 84.8802 302.135 83.8249 300.101 83.7997C298.067 83.7744 296.121 84.52 294.176 85.0634C290.077 86.2527 285.791 86.6621 281.541 86.2703C280.394 86.0603 279.216 86.1012 278.086 86.3904C277.391 86.6873 276.775 87.1432 276.287 87.7216C275.8 88.2999 275.456 88.9845 275.281 89.7204C274.308 93.1578 275.97 98.6993 277.637 101.777C279.305 104.854 283.948 106.174 287.277 105.795Z" fill="#88455E"/>
<path opacity="0.1" d="M259.918 173.615C259.918 173.615 263.354 174.044 265.073 176.193C266.791 178.341 269.798 178.986 269.798 178.986" fill="#373737"/>
<path opacity="0.1" d="M228.97 145.237C228.97 145.237 231.776 151.499 230.045 152.131C228.313 152.763 228.97 157.287 228.97 157.287" fill="#373737"/>
<g opacity="0.1">
<path opacity="0.1" d="M229.937 143.089C229.937 143.089 248.2 139.437 248.831 139.437C251.775 139.437 256.513 135.317 259.223 132.713C260.047 131.924 261.061 131.36 262.167 131.077H261.933C261.041 131.049 260.152 131.199 259.318 131.518C258.484 131.837 257.721 132.318 257.075 132.935C254.365 135.538 249.621 139.658 246.683 139.658C246.172 139.658 234.485 141.977 229.741 142.918L229.937 143.089Z" fill="#373737"/>
<path opacity="0.1" d="M280.676 127.128V126.325C276.283 128.566 271.555 130.079 266.677 130.805C271.517 130.374 276.249 129.131 280.676 127.128Z" fill="#373737"/>
<path opacity="0.1" d="M258.092 210.15C258.092 210.15 255.515 201.765 257.46 197.468C259.406 193.171 261.756 173.394 261.756 173.394L257.044 158.778H247.991L247.442 158.993H254.864L259.57 173.615C259.57 173.615 257.208 193.393 255.275 197.689C253.342 201.986 255.906 210.371 255.906 210.371L272.881 209.739V209.607L258.092 210.15Z" fill="#373737"/>
</g>
<g opacity="0.1">
<path opacity="0.1" d="M325.995 202.953C325.605 203.289 325.182 203.583 324.732 203.831C321.952 205.367 318.515 204.463 313.304 199.086C308.528 194.138 307.138 186.448 306.766 183.535L306.639 185.76C306.639 185.76 307.271 196.293 313.304 202.523C318.515 207.92 321.952 208.804 324.732 207.269C325.182 207.02 325.605 206.726 325.995 206.39C326.898 205.613 326.949 204.154 326.475 202.334C326.358 202.57 326.194 202.78 325.995 202.953Z" fill="#373737"/>
<path opacity="0.1" d="M363.569 154.911L357.486 161.944C356.972 162.537 356.356 163.034 355.666 163.41C354.784 163.89 353.802 164.16 352.799 164.2C349.293 164.345 343.203 164.389 338.061 163.385C331.08 162.026 325.843 158.917 321.895 160.693C321.444 160.889 321.02 161.142 320.632 161.445C320.632 161.445 317.164 172.275 317.694 179.649C318.105 172.755 320.632 164.882 320.632 164.882C321.02 164.579 321.444 164.327 321.895 164.13C325.85 162.355 331.08 165.464 338.061 166.822C343.203 167.82 349.286 167.776 352.799 167.637C353.802 167.597 354.784 167.327 355.666 166.847C356.354 166.477 356.97 165.987 357.486 165.4L366.841 154.602C366.357 154.903 365.81 155.088 365.242 155.142C364.674 155.196 364.101 155.117 363.569 154.911Z" fill="#373737"/>
</g>
<path d="M88.844 232.31C88.919 232.383 89.0153 232.429 89.1189 232.443C89.2224 232.457 89.3276 232.437 89.4188 232.386C89.2245 232.389 89.0308 232.364 88.844 232.31Z" fill="url(#paint1_linear)"/>
<path d="M153.222 127.639C152.085 127.311 150.461 126.774 148.509 126.091C150.538 123.481 152.022 120.49 152.874 117.296L152.71 117.359C152.767 117.163 152.824 116.973 152.874 116.771C149.128 118.294 144.984 115.716 142.344 112.405C139.703 109.094 137.922 104.987 135.028 101.941C133.823 100.729 132.526 99.6118 131.15 98.5982C130.297 97.9664 129.381 97.2523 128.339 97.2208C126.652 97.1702 125.332 98.8257 123.708 99.3123C122.64 99.5528 121.528 99.5114 120.48 99.1922C116.292 98.2318 112.268 96.4562 107.991 95.9886C105.703 95.7059 103.381 95.9679 101.213 96.7531C99.0651 97.5683 98.0859 99.1922 96.3487 100.494C94.4536 101.89 90.7517 101.859 88.5471 102.105C85.8718 102.411 83.1779 102.523 80.4864 102.44C78.9397 102.306 77.3823 102.363 75.8497 102.611C72.6469 103.312 70.0758 105.859 67.6753 108.298C67.0201 108.849 66.5485 109.588 66.3234 110.414C66.2926 110.647 66.2926 110.883 66.3234 111.116C66.2993 111.753 66.409 112.388 66.6456 112.98C67.3846 115.173 68.4287 117.251 69.7473 119.153C70.7265 120.556 71.8699 121.877 72.4258 123.538C72.6893 124.355 72.8277 125.208 72.8364 126.066C72.8092 126.977 72.7141 127.886 72.5521 128.783C72.1282 131.264 71.4312 133.69 70.4738 136.018C69.8794 137.213 69.4704 138.491 69.2609 139.809C69.2428 140.079 69.2428 140.349 69.2609 140.618C69.103 144.789 73.3102 147.79 74.1251 151.935C74.192 152.279 74.2322 152.628 74.2451 152.978C74.1567 155.562 72.6848 158.09 70.5117 159.094C70.7012 159.17 70.897 159.233 71.0929 159.296C70.906 159.414 70.7118 159.519 70.5117 159.612C70.9097 159.764 71.314 159.897 71.7246 160.004C69.2549 162.156 67.1792 164.722 65.5907 167.587C58.2817 181.197 8.7808 207.856 8.7808 207.856L9.51359 208.273L8.91978 208.659C4.63677 211.509 -5.41377 219.818 3.67025 230.326C3.67025 230.326 10.7644 219.129 15.7359 214.358C15.957 214.143 16.1781 213.948 16.3677 213.764C16.4769 213.933 16.5501 214.122 16.5827 214.32C16.6153 214.517 16.6066 214.72 16.5572 214.914L49.103 196.621C49.103 196.621 60.6696 188.521 63.8977 186.695C66.1697 185.279 68.6423 184.214 71.2318 183.535L70.8528 183.693C72.0697 183.358 73.3243 183.18 74.5862 183.162C80.3475 183.251 86.5888 187.472 88.6418 204.185C91.3961 226.566 90.12 230.604 89.2356 231.154C89.1266 231.146 89.0187 231.127 88.9135 231.097C88.9408 231.121 88.9704 231.142 89.0019 231.16C88.8821 231.152 88.7635 231.13 88.6481 231.097C88.7118 231.155 88.7893 231.196 88.8734 231.216C88.9574 231.236 89.0452 231.234 89.1283 231.21C89.188 231.229 89.251 231.234 89.313 231.226C89.375 231.219 89.4347 231.198 89.4883 231.166C89.6335 231.175 89.779 231.175 89.9242 231.166C89.9242 231.373 89.9095 231.583 89.88 231.798C89.8358 231.798 89.621 231.918 89.88 231.931C89.8105 233.195 89.8168 234.566 89.88 236C87.0183 236.158 84.1567 236.329 81.6677 236.48L81.8888 235.299L81.9899 234.768C84.1883 234.591 86.2729 233.947 86.5193 232.165C87.0562 228.247 81.6804 226.155 77.1068 225.896C72.5332 225.637 45.1042 227.463 45.1042 227.463C45.1042 227.463 40.9918 232.79 54.0366 234.414C54.4241 234.616 54.8263 234.827 55.2432 235.046C60.3538 237.959 67.2836 243.324 70.6065 245.965L71.0676 246.331L69.5768 247.545C77.6437 249.371 85.4454 280.206 89.7473 294.304C94.0493 308.401 103.462 307.889 111.263 305.797C118.572 303.839 119.476 282.607 119.596 279.941V279.669L132.596 295.732L133.582 296.951C133.961 297.149 134.336 297.334 134.706 297.507C144.548 302.189 155.42 293.21 152.331 282.974C149.204 272.655 144.353 257.396 141.118 250.944C138.408 245.542 134.908 236.569 132.786 230.951C133.061 230.841 133.329 230.712 133.588 230.566C133.588 230.566 133.538 230.313 133.455 229.852L133.588 229.782C133.588 229.782 130.43 213.531 130.291 201.98C130.291 201.778 130.291 201.567 130.291 201.348C130.291 201.222 130.291 201.095 130.291 200.975C132.641 200.438 134.131 200.23 134.131 200.23L134.176 199.724L133.904 199.781L135.212 184.812C135.212 184.812 140.013 174.594 136.336 170.342C135.218 169.098 134.472 167.566 134.182 165.919C133.55 162.007 134.182 155.48 142.742 150.058C155.919 141.699 161.061 134.893 161.061 134.893C161.061 134.893 161.289 130.015 153.222 127.639ZM127.05 138.027V131.108C129.495 130.988 131.99 131.273 134.447 131.108C135.654 131.024 136.849 130.823 138.016 130.508L138.61 130.919C135.015 133.685 131.141 136.067 127.05 138.027ZM89.6842 246.483C90.6507 247.153 91.6235 247.848 92.5774 248.549C93.1712 251.961 93.6955 254.369 93.7334 254.539C92.6432 251.731 91.2873 249.033 89.6842 246.483Z" fill="url(#paint2_linear)"/>
<path d="M110.569 240.796L110 243.886L109.564 246.249L108.768 250.571L101.049 255.974C101.049 255.974 100.354 255.38 99.204 254.438C96.0455 251.835 89.3935 246.553 84.5104 243.696C83.2555 242.895 81.8975 242.268 80.4738 241.832L110.569 240.796Z" fill="#FFBDC6"/>
<path opacity="0.1" d="M110.569 240.796L110 243.886C108.298 243.981 106.592 243.894 104.908 243.627L86.8983 243.886C86.0455 243.835 85.2495 243.766 84.5041 243.69C83.2492 242.889 81.8913 242.262 80.4675 241.826L110.569 240.796Z" fill="#373737"/>
<path d="M104.908 243.121C104.908 243.121 113.917 244.663 114.428 240.802C114.94 236.942 109.798 234.907 105.433 234.616C101.068 234.326 74.8073 236.171 74.8073 236.171C74.8073 236.171 70.1769 242.344 86.8983 243.374L104.908 243.121Z" fill="#7679B4"/>
<path opacity="0.1" d="M110.569 240.796L110 243.886L109.564 246.249L108.768 250.571L101.049 255.974C101.049 255.974 100.354 255.38 99.204 254.438C96.0455 251.835 89.3935 246.553 84.5104 243.696C83.2555 242.895 81.8975 242.268 80.4738 241.832L110.569 240.796Z" fill="#373737"/>
<path opacity="0.1" d="M110.569 240.796L110 243.886C108.298 243.981 106.592 243.894 104.908 243.627L86.8983 243.886C86.0455 243.835 85.2495 243.766 84.5041 243.69C83.2492 242.889 81.8913 242.262 80.4675 241.826L110.569 240.796Z" fill="#373737"/>
<path opacity="0.1" d="M104.908 243.121C104.908 243.121 113.917 244.663 114.428 240.802C114.94 236.942 109.798 234.907 105.433 234.616C101.068 234.326 74.8073 236.171 74.8073 236.171C74.8073 236.171 70.1769 242.344 86.8983 243.374L104.908 243.121Z" fill="#373737"/>
<path d="M124.586 116.234H77.5047V172.079H124.586V116.234Z" fill="#A66477"/>
<path opacity="0.1" d="M124.586 116.234H77.5047V172.079H124.586V116.234Z" fill="#373737"/>
<path d="M22.3184 211.843C21.5414 212.039 20.5559 212.785 19.4504 213.872C14.6936 218.573 7.90904 229.599 7.90904 229.599C-0.783317 219.249 8.83766 211.066 12.9627 208.254C13.9608 207.572 14.6305 207.205 14.6305 207.205L22.3184 211.843Z" fill="#FFBDC6"/>
<path d="M110.057 133.863C110.057 133.863 112.375 150.077 120.347 153.938C128.32 157.799 110.057 165.002 110.057 165.002L85.0979 155.739C85.0979 155.739 99.2483 151.107 96.4182 137.465L110.057 133.863Z" fill="#FFBDC6"/>
<path d="M83.3228 231.4L82.7543 234.49L82.3184 236.853L81.5224 241.175L73.8029 246.578C73.8029 246.578 73.108 245.984 71.9583 245.042C68.7997 242.439 62.1478 237.156 57.2647 234.3C56.0098 233.499 54.6518 232.872 53.228 232.436L83.3228 231.4Z" fill="#FFBDC6"/>
<path opacity="0.1" d="M83.3228 231.4L82.7543 234.49C81.0527 234.585 79.3459 234.498 77.6627 234.231L59.6526 234.49C58.7998 234.439 58.0038 234.37 57.2584 234.294C56.0035 233.493 54.6455 232.865 53.2217 232.43L83.3228 231.4Z" fill="#373737"/>
<path d="M77.6374 233.719C77.6374 233.719 86.6456 235.261 87.1573 231.4C87.669 227.539 82.5268 225.479 78.1491 225.227C73.7713 224.974 47.53 226.768 47.53 226.768C47.53 226.768 42.8996 232.942 59.621 233.972L77.6374 233.719Z" fill="#7679B4"/>
<path opacity="0.1" d="M82.2931 236.86L81.4972 241.182L73.7776 246.584C73.7776 246.584 73.0828 245.99 71.933 245.049L82.1415 236.676L82.2931 236.86Z" fill="#373737"/>
<path d="M133.228 295.776C132.874 295.603 132.516 295.42 132.154 295.226L131.213 294.026L118.781 278.229V278.507C118.699 281.129 117.802 302.044 110.815 303.971C103.354 306.031 94.3462 306.543 90.2337 292.648C86.1213 278.753 78.6545 248.385 70.9349 246.584L82.3816 237.188C82.3816 237.188 89.9621 246.034 93.0575 254.552C92.9438 254.009 87.7069 229.549 92.0278 225.227H129.589C129.589 225.227 135.376 241.744 139.368 249.933C142.464 256.29 147.107 271.316 150.107 281.483C153.076 291.542 142.704 300.389 133.228 295.776Z" fill="#7679B4"/>
<path opacity="0.1" d="M132.179 229.852C126.387 233.283 100.916 231.887 92.6153 231.331L90.3601 231.166C90.1137 231.166 90.398 231.027 90.398 231.027L90.6317 228.689L96.8035 212.993L129.867 193.835C129.198 195.851 128.97 198.941 129.027 202.485C129.191 213.847 132.179 229.852 132.179 229.852Z" fill="#373737"/>
<path d="M132.179 229.087C126.387 232.518 100.916 231.122 92.6153 230.566L90.3601 230.402H89.9874L90.398 230.294L92.4321 229.757L96.8035 212.254L129.867 193.083C129.198 195.099 128.97 198.189 129.027 201.733C129.191 213.076 132.179 229.087 132.179 229.087Z" fill="#F2F1F2"/>
<path opacity="0.1" d="M129.027 201.708C122.306 203.256 107.511 207.812 101.826 218.769C98.0354 226.086 94.8768 229.226 92.6216 230.541L90.3664 230.376L90.4043 230.237L92.4384 229.7L96.8099 212.197L129.874 193.026C129.191 195.099 128.97 198.163 129.027 201.708Z" fill="#373737"/>
<path opacity="0.1" d="M14.5989 207.212L22.3184 211.843C21.5414 212.039 20.5559 212.785 19.4504 213.872C18.8187 211.976 14.7631 209.373 12.9312 208.261C13.9293 207.578 14.5989 207.212 14.5989 207.212Z" fill="#373737"/>
<path opacity="0.1" d="M89.0082 230.699C88.9221 230.747 88.8229 230.766 88.7252 230.753C88.6274 230.741 88.5362 230.697 88.465 230.629C88.6416 230.679 88.8247 230.702 89.0082 230.699Z" fill="#373737"/>
<path d="M106.45 152.908C106.45 152.908 99.501 153.679 94.6115 148.536C94.6115 148.536 74.0303 154.456 67.0815 167.839C60.1327 181.223 12.7922 207.471 12.7922 207.471C12.7922 207.471 21.0044 212.102 20.2527 214.421L51.3835 196.407C51.3835 196.407 62.4447 188.426 65.5338 186.625C68.6229 184.824 85.6033 173.76 89.2041 203.869C92.8048 233.978 89.2041 230.408 89.2041 230.408C89.2041 230.408 94.3525 232.209 101.838 217.77C109.324 203.332 132.457 200.015 132.457 200.015L133.721 184.85C133.721 184.85 138.313 174.79 134.795 170.594C133.722 169.36 133.009 167.854 132.735 166.241C132.148 162.386 132.735 155.96 140.948 150.621C153.582 142.406 158.446 135.696 158.446 135.696C158.446 135.696 158.705 130.805 150.986 128.492C143.266 126.18 111.876 113.567 111.876 113.567L110.847 117.94L135.546 135.443C135.546 135.443 123.197 145.477 113.437 145.225C113.399 145.18 115.199 152.649 106.45 152.908Z" fill="#565388"/>
<path opacity="0.1" d="M111.219 140.921C110.611 138.848 110.136 136.737 109.798 134.603L96.1592 138.23C96.7563 140.833 96.6494 143.548 95.8497 146.097C98.637 146.84 101.582 146.746 104.316 145.824C107.049 144.902 109.451 143.195 111.219 140.915V140.921Z" fill="#373737"/>
<path d="M99.8926 145.831C107.994 145.831 114.561 139.262 114.561 131.159C114.561 123.056 107.994 116.487 99.8926 116.487C91.7915 116.487 85.2242 123.056 85.2242 131.159C85.2242 139.262 91.7915 145.831 99.8926 145.831Z" fill="#FFBDC6"/>
<path opacity="0.1" d="M107.688 97.7894C111.756 98.2507 115.629 100.001 119.634 100.949C120.634 101.263 121.701 101.304 122.723 101.069C124.277 100.589 125.54 98.9584 127.145 99.009C128.136 99.009 129.04 99.7167 129.836 100.367C131.154 101.368 132.394 102.469 133.544 103.66C136.304 106.661 138.023 110.705 140.543 113.966C143.064 117.226 147.037 119.766 150.619 118.269C148.187 127.747 140.202 134.994 131.573 135.582C128.13 135.816 124.624 135.102 121.27 136.113C120.438 136.452 119.561 136.665 118.667 136.745C116.772 136.745 115.205 134.982 114.005 133.269C111.2 129.238 108.951 124.663 105.793 120.992C104.75 119.779 103.519 118.622 102.047 118.401C100.575 118.18 99.2167 118.882 97.9027 119.564C95.7359 120.689 93.5187 121.851 91.8383 123.772C90.1579 125.693 89.0967 128.568 89.7915 131.172C90.1643 132.574 91.0234 133.838 91.055 135.31C91.055 137.648 89.0209 139.361 88.6102 141.629C88.5198 142.587 88.486 143.549 88.5092 144.511C88.326 147.632 86.2919 150.197 84.1567 152.15C83.3291 152.915 82.4068 153.73 82.1668 154.911C82.0025 155.714 82.1668 156.567 82.0594 157.382C81.7499 159.41 79.7284 160.434 77.9406 160.699C75.8527 161.005 73.7209 160.752 71.7625 159.966C74.2893 158.785 75.7991 155.417 75.218 152.384C74.422 148.207 70.2274 145.212 70.5812 140.953C70.779 139.649 71.1708 138.382 71.7435 137.193C72.6589 134.896 73.324 132.506 73.7271 130.066C74.1404 128.188 74.0993 126.238 73.6071 124.379C73.0701 122.742 71.9773 121.441 71.0423 120.057C69.7762 118.176 68.777 116.128 68.0733 113.972C67.8183 113.335 67.7208 112.645 67.789 111.962C67.9927 111.157 68.4327 110.431 69.0525 109.877C71.3519 107.47 73.8156 104.961 76.873 104.266C78.3339 104.023 79.8197 103.965 81.295 104.096C83.8707 104.178 86.4489 104.068 89.0082 103.767C91.1181 103.521 94.6936 103.552 96.4751 102.175C98.1365 100.911 99.0777 99.2996 101.131 98.4908C103.226 97.7235 105.478 97.4827 107.688 97.7894Z" fill="#373737"/>
<path opacity="0.1" d="M115.843 249.289C115.843 249.289 124.334 266.014 121.762 271.164L115.843 249.289Z" fill="#373737"/>
<path opacity="0.1" d="M131.238 294.026L118.806 278.229V278.507C118.806 278.507 118.086 273.401 120.455 275.12C125.641 278.873 133.942 285.028 134.119 286.089C134.296 287.151 132.438 291.41 131.238 294.026Z" fill="#373737"/>
<g opacity="0.1">
<path opacity="0.1" d="M113.645 145.18C113.645 145.18 114.694 149.528 111.301 151.701C116.526 150.804 116.753 146.741 116.595 144.972C115.62 145.13 114.633 145.199 113.645 145.18Z" fill="#373737"/>
<path opacity="0.1" d="M15.8875 206.441C15.8875 206.441 63.228 180.193 70.1769 166.81C75.1611 157.205 87.1699 151.449 93.5502 148.959C88.8945 150.52 73.228 156.504 67.3405 167.839C60.3916 181.223 13.0511 207.471 13.0511 207.471L15.8875 206.441Z" fill="#373737"/>
<path opacity="0.1" d="M122.855 143.139C130.91 140.612 138.61 134.375 138.61 134.375L113.91 116.872L114.472 114.471L112.11 113.523L111.08 117.896L135.78 135.399C131.817 138.515 127.474 141.116 122.855 143.139Z" fill="#373737"/>
<path opacity="0.1" d="M123.013 202.447C126.169 201.37 129.408 200.552 132.697 200.002L132.742 199.503C129.428 200.231 126.175 201.216 123.013 202.447Z" fill="#373737"/>
<path opacity="0.1" d="M93.0764 229.41H92.849C92.7629 229.458 92.6637 229.477 92.5659 229.464C92.4681 229.452 92.377 229.408 92.3057 229.34C92.4825 229.39 92.6655 229.413 92.849 229.41C93.6955 228.917 94.9652 225.075 92.3057 202.833C89.463 179.087 78.307 180.951 72.1983 183.681C78.4396 181.962 87.0309 183.447 89.4756 203.863C92.1352 226.105 90.8654 229.953 90.0189 230.44C91.1161 230.399 92.1781 230.041 93.0764 229.41Z" fill="#373737"/>
<path opacity="0.1" d="M90.0189 230.446C89.8354 230.449 89.6524 230.426 89.4756 230.376C89.5469 230.445 89.6381 230.488 89.7358 230.501C89.8336 230.513 89.9328 230.494 90.0189 230.446Z" fill="#373737"/>
</g>
<path d="M107.688 97.2903C111.756 97.7515 115.629 99.5018 119.634 100.45C120.634 100.764 121.701 100.805 122.723 100.57C124.277 100.089 125.54 98.4592 127.145 98.5098C128.136 98.5098 129.04 99.2175 129.836 99.8683C131.154 100.869 132.394 101.97 133.544 103.16C136.304 106.162 138.023 110.206 140.543 113.466C143.064 116.727 147.037 119.267 150.619 117.769C148.187 127.248 140.202 134.495 131.573 135.083C128.13 135.317 124.624 134.603 121.27 135.614C120.438 135.953 119.561 136.166 118.667 136.246C116.772 136.246 115.205 134.483 114.005 132.77C111.2 128.739 108.951 124.164 105.793 120.493C104.75 119.28 103.519 118.123 102.047 117.902C100.575 117.681 99.2167 118.382 97.9027 119.065C95.7359 120.19 93.5187 121.352 91.8383 123.273C90.1579 125.194 89.0967 128.069 89.7915 130.672C90.1643 132.075 91.0234 133.339 91.055 134.811C91.055 137.149 89.0209 138.862 88.6102 141.13C88.5198 142.088 88.486 143.05 88.5092 144.011C88.326 147.133 86.2919 149.698 84.1567 151.651C83.3291 152.415 82.4068 153.23 82.1668 154.412C82.0025 155.215 82.1668 156.068 82.0594 156.883C81.7499 158.911 79.7284 159.935 77.9406 160.2C75.8527 160.506 73.7209 160.253 71.7625 159.467C74.2893 158.285 75.7991 154.918 75.218 151.885C74.422 147.708 70.2274 144.713 70.5812 140.454C70.779 139.15 71.1708 137.882 71.7435 136.694C72.6589 134.397 73.324 132.007 73.7271 129.567C74.1404 127.688 74.0993 125.739 73.6071 123.88C73.0701 122.243 71.9773 120.941 71.0423 119.558C69.7762 117.676 68.777 115.629 68.0733 113.473C67.8183 112.836 67.7208 112.146 67.789 111.463C67.9927 110.658 68.4327 109.931 69.0525 109.378C71.3519 106.971 73.8156 104.462 76.873 103.767C78.3339 103.524 79.8197 103.466 81.295 103.596C83.8707 103.678 86.4489 103.569 89.0082 103.268C91.1181 103.021 94.6936 103.053 96.4751 101.675C98.1365 100.412 99.0777 98.8005 101.131 97.9917C103.226 97.2244 105.478 96.9835 107.688 97.2903Z" fill="#A66477"/>
<path d="M526.532 64.3568C526.532 64.2746 526.532 64.1988 526.532 64.123C526.532 64.0472 526.532 63.9587 526.494 63.8829H526.393C526.393 63.7123 526.393 63.5416 526.393 63.3584C526.14 57.5009 518.042 45.0339 514.795 48.6736C511.952 51.8709 516.241 59.9589 518.427 63.5985L518.623 63.9271L518.515 63.8576C518.515 63.8576 509.476 90.8262 508.408 91.8751C507.34 92.924 499.899 114.13 490.088 116.518C488.149 116.98 486.538 117.397 485.186 117.782L485.294 117.422C485.925 115.356 486.702 113.403 487.018 111.103C487.334 108.803 487.018 106.017 485.856 104.898C485.287 104.342 484.593 104.266 484.125 103.382C483.822 102.606 483.659 101.782 483.645 100.949L482.811 90.7251L483.392 90.5481C486.905 89.4234 490.31 86.7569 490.708 83.1678C490.585 83.2142 490.461 83.2543 490.335 83.2878C490.381 83.0792 490.417 82.8683 490.442 82.656C487.492 83.8186 484.757 80.7603 481.914 79.3892C477.233 77.0954 471.883 79.2565 467.05 79.7809C461.573 80.3812 456.374 78.1064 450.777 78.5172C447.732 78.751 444.346 80.8172 444.51 83.8186C444.605 85.4678 445.774 86.8643 446.254 88.444C447.467 92.2668 444.769 96.1023 442.407 99.3628C440.853 101.505 439.362 104.115 439.097 106.629C433.658 100.943 427.776 94.371 427.094 91.9003L411.358 64.9318C411.358 64.9318 410.985 65.3299 410.385 65.9175C410.291 65.6269 410.177 65.2856 410.051 64.9444C408.042 59.3144 402.356 45.6721 395.148 48.1744C387.941 50.6766 398.136 64.6601 402.571 70.2332L403.203 71.0041C402.831 71.0955 402.441 71.078 402.078 70.9536L419.627 101.063C419.627 101.063 422.817 106.825 425.742 108.392C425.742 108.392 447.543 135.885 447.808 141.383C448.073 146.88 457.612 161.546 457.612 161.546C457.612 161.546 460.802 185.374 455.218 189.563H455.287H455.332H455.401H455.464H455.591H455.673H455.755H455.862H455.951H456.077H456.14C455.875 189.823 455.603 190.107 455.325 190.416C451.188 195.004 445.9 204.836 453.127 221.555C463.759 246.199 465.357 255.854 465.357 255.854C465.357 255.854 445.142 256.903 441.162 257.686C437.637 258.381 423.936 258.868 420.802 258.95C419.684 257.648 416.38 254.767 411.92 258.95C406.336 264.188 402.35 281.698 402.35 281.698C402.35 281.698 400.221 295.839 407.404 292.168C407.404 292.168 415.913 280.383 418.301 279.859C419.488 279.6 420.745 277.849 421.706 276.162L421.756 276.194C421.813 276.194 422.047 276.068 422.426 275.916C424.195 275.215 429.065 273.527 432.906 274.368C435.009 274.829 444.03 274.937 453.487 274.911C451.352 280.029 447.524 293.236 447.524 293.236C447.524 293.236 445.925 305.551 451.232 305.046C455.022 304.673 460.834 294.986 463.866 289.457C466.064 287.846 472.363 282.07 477.018 282.506L508.389 270.463C508.389 270.463 515.831 266.273 511.845 252.397C508.686 241.365 499.697 218.781 496.147 209.979L496.039 209.752C495.18 207.623 494.662 206.359 494.662 206.359C493.204 202.34 492.247 198.157 491.813 193.904C491.781 193.57 491.756 193.228 491.731 192.893C492.17 192.709 492.584 192.469 492.963 192.179C492.963 192.179 490.038 162.595 492.963 159.448L493.013 159.391V159.353L493.064 159.29L493.177 159.145L493.316 158.968C493.474 158.759 493.664 158.5 493.879 158.184C495.553 155.733 498.673 150.134 497.776 143.525C497.738 143.238 497.692 142.95 497.637 142.659C497.294 140.867 496.68 139.137 495.818 137.528C495.692 136.859 495.614 136.181 495.584 135.5C495.584 135.114 495.584 134.691 495.584 134.236V134.16C495.584 134.038 495.584 133.916 495.584 133.794V133.705C495.584 133.408 495.635 133.074 495.679 132.796V132.682C495.679 132.568 495.698 132.452 495.736 132.334V132.189C495.736 132.075 495.786 131.961 495.812 131.848V131.728C495.85 131.576 495.888 131.424 495.938 131.273V131.197C495.976 131.07 496.018 130.946 496.064 130.824L496.121 130.679L496.248 130.375L496.311 130.224C496.361 130.11 496.418 129.996 496.475 129.883L496.519 129.788C496.595 129.649 496.675 129.512 496.759 129.377L496.829 129.27L497.037 128.973L497.138 128.84L497.359 128.575L497.461 128.461C497.574 128.341 497.688 128.221 497.814 128.107C501.27 124.948 516.69 101.663 516.69 101.663C516.69 101.663 520.411 96.4246 520.411 93.0251C520.619 92.9493 527.195 71.0231 526.532 64.3568ZM485.136 260.081C484.757 256.492 484.378 252.044 484.03 247.443L490.044 256.821C490.044 256.821 489.476 259.677 485.136 260.081Z" fill="url(#paint3_linear)"/>
<path d="M422.432 258.097C422.432 258.097 418.831 252.41 413.424 257.585C408.016 262.76 404.163 279.973 404.163 279.973C404.163 279.973 402.104 293.874 409.052 290.266C409.052 290.266 417.265 278.683 419.602 278.172C421.939 277.66 424.492 271.221 424.492 271.221L422.432 258.097Z" fill="#373737"/>
<path d="M461.023 271.992C461.023 271.992 456.134 269.673 454.593 271.48C453.051 273.287 447.903 291.296 447.903 291.296C447.903 291.296 446.361 303.137 451.504 302.619C456.646 302.101 465.654 283.562 465.654 283.562L461.023 271.992Z" fill="#373737"/>
<path opacity="0.05" d="M461.023 271.992C461.023 271.992 456.134 269.673 454.593 271.48C453.051 273.287 447.903 291.296 447.903 291.296C447.903 291.296 446.361 303.137 451.504 302.619C456.646 302.101 465.654 283.562 465.654 283.562L461.023 271.992Z" fill="#373737"/>
<path d="M478.004 236.992L489.065 254.236C489.065 254.236 488.294 258.097 481.605 257.326L458.705 271.739C458.705 271.739 456.715 289.286 463.076 287.694C464.106 287.435 471.289 279.973 476.456 280.491L506.822 268.649C506.822 268.649 514.024 264.529 510.164 250.893C506.304 237.258 493.544 205.638 493.544 205.638L473.373 216.924L478.004 236.992Z" fill="#3E3D77"/>
<path opacity="0.05" d="M478.004 236.992L489.065 254.236C489.065 254.236 488.294 258.097 481.605 257.326L458.705 271.739C458.705 271.739 456.715 289.286 463.076 287.694C464.106 287.435 471.289 279.973 476.456 280.491L506.822 268.649C506.822 268.649 514.024 264.529 510.164 250.893C506.304 237.258 493.544 205.638 493.544 205.638L473.373 216.924L478.004 236.992Z" fill="#373737"/>
<path d="M484.953 262.47C486.494 272.251 477.751 273.022 477.751 273.022C477.751 273.022 438.383 273.793 433.752 272.763C429.122 271.733 422.944 274.564 422.944 274.564C414.965 269.673 421.402 257.579 421.402 257.579C421.402 257.579 437.871 257.067 441.731 256.315C445.591 255.563 465.142 254.495 465.142 254.495C465.142 254.495 463.601 244.973 453.304 220.785C446.311 204.356 451.409 194.688 455.433 190.183C456.46 188.987 457.648 187.941 458.964 187.074L490.613 188.616C490.579 190.212 490.638 191.809 490.79 193.399C491.331 198.856 492.749 204.191 494.991 209.196C493.19 209.196 481.611 220.007 481.611 220.007C481.611 220.007 483.405 252.694 484.953 262.47Z" fill="#3E3D77"/>
<path opacity="0.1" d="M423.715 258.609C423.715 258.609 440.183 258.097 444.043 257.345C447.903 256.593 467.454 255.544 467.454 255.544C467.454 255.544 465.913 246.022 455.616 221.833C448.623 205.405 453.721 195.737 457.745 191.232C458.772 190.036 459.96 188.99 461.276 188.123L490.6 189.551C490.6 189.247 490.6 188.919 490.6 188.635L458.951 187.093C457.636 187.96 456.447 189.006 455.42 190.202C451.415 194.713 446.298 204.375 453.291 220.803C463.613 244.973 465.142 254.495 465.142 254.495C465.142 254.495 445.559 255.525 441.731 256.296C437.903 257.067 421.402 257.56 421.402 257.56C421.402 257.56 414.972 269.66 422.944 274.57C422.944 274.57 423.184 274.456 423.576 274.292C418.275 268.839 423.715 258.609 423.715 258.609Z" fill="#373737"/>
<path d="M470.796 92.6144H454.845V133.017H470.796V92.6144Z" fill="#373737"/>
<path opacity="0.1" d="M470.796 92.6144H454.845V133.017H470.796V92.6144Z" fill="#373737"/>
<path d="M479.918 86.6873C480.468 86.839 481.087 86.858 481.459 87.6162C481.691 88.2222 481.817 88.8633 481.832 89.5118L482.836 101.998C482.851 102.815 483.009 103.624 483.304 104.386C483.727 105.233 484.428 105.334 484.978 105.877C486.084 106.977 486.406 109.732 486.102 111.975C485.799 114.218 485.035 116.139 484.435 118.168C483.576 121.074 483.007 124.341 481.8 126.793C480.594 129.244 478.402 130.584 476.987 128.524C475.572 126.464 475.761 122.306 475.496 118.901C475.054 113.214 472.836 108.31 472.685 102.585C472.558 97.9537 473.803 93.6317 474.58 89.2401C475.136 86.2261 475.167 82.5675 475.976 79.8567C476.652 83.0793 477.941 86.1439 479.918 86.6873Z" fill="#373737"/>
<path opacity="0.1" d="M479.918 86.6873C480.468 86.839 481.087 86.858 481.459 87.6162C481.691 88.2222 481.817 88.8633 481.832 89.5118L482.836 101.998C482.851 102.815 483.009 103.624 483.304 104.386C483.727 105.233 484.428 105.334 484.978 105.877C486.084 106.977 486.406 109.732 486.102 111.975C485.799 114.218 485.035 116.139 484.435 118.168C483.576 121.074 483.007 124.341 481.8 126.793C480.594 129.244 478.402 130.584 476.987 128.524C475.572 126.464 475.761 122.306 475.496 118.901C475.054 113.214 472.836 108.31 472.685 102.585C472.558 97.9537 473.803 93.6317 474.58 89.2401C475.136 86.2261 475.167 82.5675 475.976 79.8567C476.652 83.0793 477.941 86.1439 479.918 86.6873Z" fill="#373737"/>
<path d="M412.394 68.9379L406.222 74.0877C406.222 74.0877 405.49 73.2283 404.397 71.8382C400.107 66.3598 390.246 52.6165 397.214 50.1585C404.182 47.7005 409.69 61.1026 411.636 66.6379C412.129 68.0406 412.394 68.9379 412.394 68.9379Z" fill="#C77485"/>
<path d="M523.803 67.1371C521.232 70.9978 517.631 67.1371 517.631 67.1371C517.631 67.1371 517.17 66.4483 516.519 65.3362C514.403 61.7534 510.253 53.8107 513.001 50.664C516.159 47.0686 523.986 59.3397 524.226 65.0961C524.301 65.8039 524.153 66.5172 523.803 67.1371Z" fill="#C77485"/>
<path d="M460.505 108.828C460.505 108.828 465.654 125.301 464.106 130.186C462.559 135.07 475.174 140.757 475.174 140.757H489.583C489.583 140.757 494.732 130.205 493.443 127.115C492.154 124.025 481.093 121.712 481.093 121.712C481.093 121.712 474.662 121.712 474.921 104.468L460.505 108.828Z" fill="#C77485"/>
<path opacity="0.1" d="M412.394 68.9379L406.222 74.0877C406.222 74.0877 405.49 73.2284 404.397 71.8382C406.639 71.4402 410.12 68.167 411.642 66.6379C412.129 68.0406 412.394 68.9379 412.394 68.9379Z" fill="#373737"/>
<path opacity="0.1" d="M523.803 67.1371C521.232 70.9978 517.631 67.1371 517.631 67.1371C517.631 67.1371 517.17 66.4483 516.519 65.3362L516.601 65.0771C518.269 66.2714 523.455 65.2541 524.226 65.0771C524.305 65.7912 524.157 66.5118 523.803 67.1371Z" fill="#373737"/>
<path opacity="0.1" d="M490.777 193.393C482.817 197.026 456.955 190.555 455.401 190.17C456.428 188.975 457.617 187.928 458.932 187.061L490.581 188.603C490.553 190.202 490.619 191.801 490.777 193.393Z" fill="#373737"/>
<path d="M463.854 122.982C463.854 122.982 457.682 125.042 448.932 117.062C448.932 117.062 429.349 97.7579 428.086 93.1262L412.925 66.5873C412.925 66.5873 406.494 73.538 403.917 72.508L420.897 102.105C420.897 102.105 423.986 107.792 426.816 109.309C426.816 109.309 447.915 136.334 448.168 141.737C448.421 147.139 457.675 161.609 457.675 161.609C457.675 161.609 460.764 185.027 455.357 189.146C455.357 189.146 485.458 196.868 491.889 191.718C491.889 191.718 489.059 162.652 491.889 159.549C491.889 159.549 500.638 149.256 494.719 137.933C494.719 137.933 493.456 131.759 496.778 128.669C500.101 125.579 515.047 102.674 515.047 102.674C515.047 102.674 518.648 97.5241 518.648 94.1814C518.648 94.1814 525.338 71.5349 524.334 65.6142C524.334 65.6142 518.414 66.878 516.614 65.6142C516.614 65.6142 507.865 92.1531 506.835 93.1515C505.805 94.1498 498.623 115.027 489.084 117.346C479.545 119.665 478.023 120.689 478.023 120.689C478.023 120.689 496.545 132.271 487.543 137.415C478.541 142.558 463.854 122.982 463.854 122.982Z" fill="#FFAAC4"/>
<path opacity="0.1" d="M475.547 112.79C475.241 110.366 475.116 107.922 475.174 105.479L460.764 109.852C461.144 110.812 461.446 111.801 461.668 112.809C463.317 113.536 465.54 115.255 467.454 115.255C470.35 115.349 473.195 114.483 475.547 112.79Z" fill="#373737"/>
<path d="M467.195 114.49C474.585 114.49 480.575 108.498 480.575 101.107C480.575 93.7155 474.585 87.7236 467.195 87.7236C459.806 87.7236 453.816 93.7155 453.816 101.107C453.816 108.498 459.806 114.49 467.195 114.49Z" fill="#C77485"/>
<path opacity="0.1" d="M451.276 80.4886C448.332 80.7161 445.047 82.7507 445.212 85.7016C445.3 87.3255 446.412 88.6967 446.898 90.2511C448.067 94.0108 445.464 97.7831 443.178 100.993C440.891 104.203 438.756 108.456 440.714 111.855C441.272 112.674 441.875 113.46 442.521 114.212C444.94 117.479 444.908 121.889 445.982 125.813C447.354 130.833 450.596 135.137 455.042 137.84C459.488 140.543 464.8 141.44 469.886 140.346C467.971 137.902 467.017 134.841 467.202 131.74C467.347 129.491 468.073 127.14 467.202 125.061C466.077 122.388 462.78 121.333 461.08 118.995C459.381 116.657 459.495 113.416 460.316 110.629C461.137 107.843 462.558 105.258 463.241 102.415C463.409 101.585 463.62 100.765 463.872 99.9568C465.06 96.5826 468.61 94.6237 472.085 93.7833C475.559 92.9429 479.21 92.8924 482.603 91.7866C485.995 90.6808 489.293 88.0901 489.684 84.5326C486.829 85.6763 484.182 82.6939 481.428 81.3227C476.892 79.0732 471.718 81.19 467.044 81.7082C461.718 82.3021 456.665 80.0969 451.276 80.4886Z" fill="#373737"/>
<path d="M451.017 79.9768C448.073 80.2043 444.788 82.2389 444.953 85.1898C445.041 86.8137 446.153 88.1849 446.639 89.7393C447.808 93.499 445.205 97.2713 442.919 100.481C440.632 103.691 438.497 107.944 440.455 111.343C441.013 112.162 441.616 112.949 442.262 113.7C444.681 116.967 444.649 121.377 445.723 125.301C447.095 130.322 450.337 134.625 454.783 137.328C459.229 140.031 464.541 140.928 469.627 139.835C467.712 137.39 466.758 134.329 466.943 131.228C467.088 128.979 467.814 126.628 466.943 124.549C465.818 121.877 462.521 120.821 460.821 118.483C459.122 116.146 459.236 112.904 460.057 110.117C460.878 107.331 462.299 104.746 462.982 101.903C463.15 101.073 463.361 100.253 463.613 99.445C464.801 96.0707 468.351 94.1119 471.826 93.2715C475.3 92.4311 478.951 92.3806 482.344 91.2748C485.736 90.169 489.033 87.5783 489.425 84.0208C486.57 85.1645 483.923 82.1821 481.169 80.8109C476.633 78.5614 471.459 80.6782 466.785 81.1963C461.472 81.784 456.437 79.5534 451.017 79.9768Z" fill="#373737"/>
<path opacity="0.1" d="M480.449 130.837C480.449 130.837 485.805 135.62 486.86 137.73L480.449 130.837Z" fill="#373737"/>
<path opacity="0.1" d="M492.04 159.404C492.04 159.404 485.351 159.404 482.262 160.175C479.172 160.946 471.712 160.175 471.712 160.175" fill="#373737"/>
<g opacity="0.1">
<path opacity="0.1" d="M487.524 137.396C486.947 137.726 486.323 137.964 485.673 138.103C487.351 138.475 489.107 138.224 490.613 137.396C499.621 132.246 481.093 120.67 481.093 120.67H478.004C478.004 120.67 496.532 132.252 487.524 137.396Z" fill="#373737"/>
<path opacity="0.1" d="M524.378 66.0627C524.378 65.8985 524.34 65.7406 524.315 65.5953C523.257 65.8146 522.187 65.9769 521.112 66.0817C522.198 66.2011 523.293 66.1947 524.378 66.0627Z" fill="#373737"/>
<path opacity="0.1" d="M458.452 189.127C463.853 185.008 460.771 161.59 460.771 161.59C460.771 161.59 451.51 147.177 451.251 141.774C450.992 136.372 429.899 109.347 429.899 109.347C427.069 107.805 423.98 102.143 423.98 102.143C423.98 102.143 406.481 73.5759 403.91 72.5459L420.891 102.143C420.891 102.143 423.98 107.83 426.81 109.347C426.81 109.347 447.909 136.372 448.162 141.774C448.414 147.177 457.675 161.609 457.675 161.609C457.675 161.609 460.764 185.027 455.357 189.146C455.357 189.146 473.86 193.892 484.953 193.462C473.835 193.07 458.452 189.127 458.452 189.127Z" fill="#373737"/>
<path opacity="0.1" d="M464.005 123.185L463.853 122.989C463.677 123.041 463.498 123.081 463.317 123.109C463.557 123.14 463.784 123.166 464.005 123.185Z" fill="#373737"/>
</g>
<g opacity="0.1">
<path opacity="0.1" d="M524.315 65.5637L524.157 65.5953C523.885 73.5001 518.402 92.0709 518.402 92.0709C518.402 95.4136 514.801 100.563 514.801 100.563C514.801 100.563 499.88 123.469 496.532 126.559C493.184 129.649 494.473 135.822 494.473 135.822L494.504 135.885C494.403 133.806 494.656 130.584 496.785 128.612C500.126 125.523 515.054 102.617 515.054 102.617C515.054 102.617 518.655 97.4672 518.655 94.1245C518.655 94.1625 525.344 71.516 524.315 65.5637Z" fill="#373737"/>
<path opacity="0.1" d="M491.643 157.47C492.028 159.657 491.769 157.344 491.902 159.53C491.902 159.53 498.219 152.118 496.494 142.956C497.012 151.145 491.643 157.47 491.643 157.47Z" fill="#373737"/>
</g>
<path opacity="0.1" d="M296.772 418C445.98 418 566.936 406.378 566.936 392.042C566.936 377.706 445.98 366.085 296.772 366.085C147.564 366.085 26.6077 377.706 26.6077 392.042C26.6077 406.378 147.564 418 296.772 418Z" fill="#596AFF"/>
<path d="M192.047 365.706C192.047 365.706 182.849 334.459 193.771 311.465C198.417 301.849 199.818 290.984 197.764 280.503C196.749 275.535 195.282 270.67 193.38 265.97" stroke="#535461" stroke-width="2" stroke-miterlimit="10"/>
<path d="M200.189 251.45C200.189 255.279 193.241 266.381 193.241 266.381C193.241 266.381 186.292 255.279 186.292 251.45C186.221 250.496 186.348 249.538 186.664 248.636C186.981 247.734 187.48 246.907 188.13 246.207C188.78 245.506 189.568 244.947 190.444 244.565C191.321 244.183 192.266 243.986 193.222 243.986C194.177 243.986 195.123 244.183 195.999 244.565C196.875 244.947 197.663 245.506 198.313 246.207C198.964 246.907 199.463 247.734 199.779 248.636C200.095 249.538 200.222 250.496 200.152 251.45H200.189Z" fill="#596AFF"/>
<path d="M211.63 272.655C209.552 275.872 197.701 281.419 197.701 281.419C197.701 281.419 197.915 268.333 199.994 265.117C200.455 264.282 201.083 263.551 201.838 262.969C202.594 262.387 203.461 261.967 204.386 261.735C205.311 261.503 206.274 261.464 207.214 261.62C208.155 261.777 209.054 262.125 209.854 262.643C210.654 263.162 211.34 263.84 211.867 264.634C212.394 265.429 212.752 266.324 212.919 267.263C213.085 268.202 213.057 269.166 212.835 270.093C212.613 271.021 212.203 271.893 211.63 272.655Z" fill="#596AFF"/>
<path d="M211.131 308.906C207.713 310.631 194.706 309.437 194.706 309.437C194.706 309.437 201.497 298.246 204.915 296.521C205.734 296.029 206.646 295.712 207.594 295.588C208.541 295.465 209.504 295.538 210.422 295.803C211.34 296.069 212.193 296.521 212.929 297.131C213.664 297.742 214.266 298.497 214.696 299.351C215.126 300.204 215.376 301.137 215.43 302.091C215.483 303.046 215.339 304.001 215.007 304.897C214.675 305.793 214.161 306.611 213.499 307.3C212.836 307.989 212.039 308.533 211.156 308.9L211.131 308.906Z" fill="#596AFF"/>
<path d="M204.58 336.241C201.503 338.516 188.452 339.546 188.452 339.546C188.452 339.546 193.253 327.37 196.336 325.089C197.82 324.187 199.587 323.873 201.29 324.21C202.993 324.546 204.509 325.507 205.538 326.905C206.568 328.303 207.038 330.036 206.855 331.762C206.671 333.489 205.849 335.085 204.548 336.235L204.58 336.241Z" fill="#596AFF"/>
<path d="M183.133 282.165C185.881 284.832 198.673 287.599 198.673 287.599C198.673 287.599 195.515 274.892 192.792 272.219C192.157 271.507 191.382 270.933 190.515 270.534C189.648 270.134 188.708 269.918 187.754 269.897C186.8 269.877 185.852 270.054 184.969 270.416C184.086 270.778 183.287 271.319 182.622 272.003C181.957 272.688 181.441 273.502 181.104 274.396C180.768 275.289 180.619 276.242 180.667 277.195C180.715 278.149 180.958 279.082 181.383 279.937C181.807 280.792 182.403 281.551 183.133 282.165Z" fill="#596AFF"/>
<path d="M175.888 314.239C179.305 315.964 192.312 314.77 192.312 314.77C192.312 314.77 185.546 303.58 182.129 301.886C180.508 301.213 178.694 301.178 177.049 301.788C175.403 302.399 174.05 303.609 173.26 305.176C172.47 306.743 172.302 308.55 172.789 310.236C173.276 311.922 174.383 313.361 175.888 314.265V314.239Z" fill="#596AFF"/>
<path d="M173.108 346.377C176.184 348.651 189.236 349.681 189.236 349.681C189.236 349.681 184.435 337.505 181.352 335.224C180.629 334.585 179.782 334.103 178.863 333.809C177.944 333.516 176.974 333.417 176.015 333.518C175.055 333.62 174.128 333.921 173.291 334.401C172.454 334.881 171.727 335.53 171.154 336.307C170.582 337.083 170.178 337.971 169.967 338.913C169.756 339.854 169.744 340.829 169.931 341.776C170.118 342.723 170.499 343.62 171.052 344.411C171.604 345.202 172.315 345.869 173.14 346.37L173.108 346.377Z" fill="#596AFF"/>
<path opacity="0.1" d="M200.189 251.45C200.189 255.279 193.241 266.381 193.241 266.381C193.241 266.381 186.292 255.279 186.292 251.45C186.221 250.496 186.348 249.538 186.664 248.636C186.981 247.734 187.48 246.907 188.13 246.207C188.78 245.506 189.568 244.947 190.444 244.565C191.321 244.183 192.266 243.986 193.222 243.986C194.177 243.986 195.123 244.183 195.999 244.565C196.875 244.947 197.663 245.506 198.313 246.207C198.964 246.907 199.463 247.734 199.779 248.636C200.095 249.538 200.222 250.496 200.152 251.45H200.189Z" fill="#596AFF"/>
<path opacity="0.1" d="M211.63 272.655C209.552 275.872 197.701 281.419 197.701 281.419C197.701 281.419 197.915 268.333 199.994 265.117C200.455 264.282 201.083 263.551 201.838 262.969C202.594 262.387 203.461 261.967 204.386 261.735C205.311 261.503 206.274 261.464 207.214 261.62C208.155 261.777 209.054 262.125 209.854 262.643C210.654 263.162 211.34 263.84 211.867 264.634C212.394 265.429 212.752 266.324 212.919 267.263C213.085 268.202 213.057 269.166 212.835 270.093C212.613 271.021 212.203 271.893 211.63 272.655Z" fill="#596AFF"/>
<path opacity="0.1" d="M211.131 308.906C207.713 310.631 194.706 309.437 194.706 309.437C194.706 309.437 201.497 298.246 204.915 296.521C205.734 296.029 206.646 295.712 207.594 295.588C208.541 295.465 209.504 295.538 210.422 295.803C211.34 296.069 212.193 296.521 212.929 297.131C213.664 297.742 214.266 298.497 214.696 299.351C215.126 300.204 215.376 301.137 215.43 302.091C215.483 303.046 215.339 304.001 215.007 304.897C214.675 305.793 214.161 306.611 213.499 307.3C212.836 307.989 212.039 308.533 211.156 308.9L211.131 308.906Z" fill="#596AFF"/>
<path opacity="0.1" d="M204.58 336.241C201.503 338.516 188.452 339.546 188.452 339.546C188.452 339.546 193.253 327.37 196.336 325.089C197.82 324.187 199.587 323.873 201.29 324.21C202.993 324.546 204.509 325.507 205.538 326.905C206.568 328.303 207.038 330.036 206.855 331.762C206.671 333.489 205.849 335.085 204.548 336.235L204.58 336.241Z" fill="#596AFF"/>
<path opacity="0.1" d="M183.133 282.165C185.881 284.832 198.673 287.599 198.673 287.599C198.673 287.599 195.515 274.892 192.792 272.219C192.157 271.507 191.382 270.933 190.515 270.534C189.648 270.134 188.708 269.918 187.754 269.897C186.8 269.877 185.852 270.054 184.969 270.416C184.086 270.778 183.287 271.319 182.622 272.003C181.957 272.688 181.441 273.502 181.104 274.396C180.768 275.289 180.619 276.242 180.667 277.195C180.715 278.149 180.958 279.082 181.383 279.937C181.807 280.792 182.403 281.551 183.133 282.165Z" fill="#596AFF"/>
<path opacity="0.1" d="M175.888 314.239C179.305 315.964 192.312 314.77 192.312 314.77C192.312 314.77 185.546 303.58 182.129 301.886C180.508 301.213 178.694 301.178 177.049 301.788C175.403 302.399 174.05 303.609 173.26 305.176C172.47 306.743 172.302 308.55 172.789 310.236C173.276 311.922 174.383 313.361 175.888 314.265V314.239Z" fill="#596AFF"/>
<path opacity="0.1" d="M173.108 346.377C176.184 348.651 189.236 349.681 189.236 349.681C189.236 349.681 184.435 337.505 181.352 335.224C180.629 334.585 179.782 334.103 178.863 333.809C177.944 333.516 176.974 333.417 176.015 333.518C175.055 333.62 174.128 333.921 173.291 334.401C172.454 334.881 171.727 335.53 171.154 336.307C170.582 337.083 170.178 337.971 169.967 338.913C169.756 339.854 169.744 340.829 169.931 341.776C170.118 342.723 170.499 343.62 171.052 344.411C171.604 345.202 172.315 345.869 173.14 346.37L173.108 346.377Z" fill="#596AFF"/>
<path d="M378.174 366.154C378.174 366.154 368.977 334.908 379.899 311.914C384.544 302.297 385.945 291.433 383.891 280.952C382.877 275.984 381.409 271.119 379.507 266.419" stroke="#535461" stroke-width="2" stroke-miterlimit="10"/>
<path d="M386.305 251.892C386.305 255.721 379.356 266.823 379.356 266.823C379.356 266.823 372.407 255.721 372.407 251.892C372.536 250.142 373.323 248.506 374.608 247.312C375.893 246.118 377.583 245.454 379.337 245.454C381.091 245.454 382.78 246.118 384.065 247.312C385.351 248.506 386.137 250.142 386.267 251.892H386.305Z" fill="#596AFF"/>
<path d="M397.764 273.098C395.685 276.314 383.834 281.862 383.834 281.862C383.834 281.862 384.049 268.776 386.128 265.559C386.589 264.724 387.216 263.993 387.972 263.412C388.728 262.83 389.595 262.41 390.52 262.178C391.445 261.946 392.408 261.907 393.348 262.063C394.289 262.219 395.188 262.567 395.988 263.086C396.788 263.604 397.473 264.282 398.001 265.077C398.528 265.871 398.886 266.766 399.052 267.705C399.219 268.645 399.191 269.608 398.969 270.536C398.747 271.463 398.337 272.335 397.764 273.098Z" fill="#596AFF"/>
<path d="M397.284 309.349C393.866 311.074 380.859 309.879 380.859 309.879C380.859 309.879 387.65 298.689 391.068 296.964C391.888 296.467 392.802 296.146 393.752 296.02C394.703 295.894 395.669 295.966 396.59 296.231C397.511 296.497 398.368 296.95 399.105 297.563C399.843 298.176 400.446 298.934 400.876 299.791C401.306 300.649 401.554 301.585 401.605 302.543C401.655 303.501 401.507 304.458 401.17 305.356C400.833 306.254 400.313 307.072 399.644 307.759C398.976 308.446 398.172 308.987 397.284 309.349Z" fill="#596AFF"/>
<path d="M390.708 336.684C387.631 338.958 374.58 339.988 374.58 339.988C374.58 339.988 379.381 327.812 382.464 325.531C383.947 324.629 385.714 324.316 387.418 324.652C389.121 324.988 390.636 325.95 391.666 327.347C392.696 328.745 393.165 330.478 392.982 332.205C392.799 333.931 391.976 335.527 390.676 336.677L390.708 336.684Z" fill="#596AFF"/>
<path d="M369.274 282.607C372.021 285.274 384.814 288.042 384.814 288.042C384.814 288.042 381.655 275.335 378.932 272.662C378.297 271.949 377.522 271.376 376.655 270.976C375.788 270.577 374.849 270.36 373.895 270.34C372.94 270.319 371.992 270.496 371.109 270.858C370.227 271.221 369.428 271.761 368.763 272.446C368.098 273.13 367.581 273.945 367.244 274.838C366.908 275.731 366.759 276.684 366.807 277.638C366.855 278.591 367.099 279.524 367.523 280.379C367.947 281.234 368.543 281.993 369.274 282.607Z" fill="#596AFF"/>
<path d="M362.015 314.682C365.433 316.407 378.44 315.212 378.44 315.212C378.44 315.212 371.649 304.022 368.231 302.297C366.611 301.624 364.796 301.589 363.151 302.199C361.506 302.809 360.153 304.019 359.362 305.586C358.572 307.153 358.404 308.961 358.892 310.647C359.379 312.333 360.486 313.772 361.99 314.675L362.015 314.682Z" fill="#596AFF"/>
<path d="M359.242 346.819C362.318 349.094 375.37 350.124 375.37 350.124C375.37 350.124 370.569 337.947 367.486 335.666C366.002 334.765 364.235 334.451 362.532 334.787C360.829 335.123 359.313 336.085 358.283 337.483C357.254 338.881 356.784 340.613 356.967 342.34C357.15 344.067 357.973 345.662 359.274 346.813L359.242 346.819Z" fill="#596AFF"/>
<path opacity="0.1" d="M386.305 251.892C386.305 255.721 379.356 266.823 379.356 266.823C379.356 266.823 372.407 255.721 372.407 251.892C372.536 250.142 373.323 248.506 374.608 247.312C375.893 246.118 377.583 245.454 379.337 245.454C381.091 245.454 382.78 246.118 384.065 247.312C385.351 248.506 386.137 250.142 386.267 251.892H386.305Z" fill="#596AFF"/>
<path opacity="0.1" d="M397.764 273.098C395.685 276.314 383.834 281.862 383.834 281.862C383.834 281.862 384.049 268.776 386.128 265.559C386.589 264.724 387.216 263.993 387.972 263.412C388.728 262.83 389.595 262.41 390.52 262.178C391.445 261.946 392.408 261.907 393.348 262.063C394.289 262.219 395.188 262.567 395.988 263.086C396.788 263.604 397.473 264.282 398.001 265.077C398.528 265.871 398.886 266.766 399.052 267.705C399.219 268.645 399.191 269.608 398.969 270.536C398.747 271.463 398.337 272.335 397.764 273.098Z" fill="#596AFF"/>
<path opacity="0.1" d="M397.284 309.349C393.866 311.074 380.859 309.879 380.859 309.879C380.859 309.879 387.65 298.689 391.068 296.964C391.888 296.467 392.802 296.146 393.752 296.02C394.703 295.894 395.669 295.966 396.59 296.231C397.511 296.497 398.368 296.95 399.105 297.563C399.843 298.176 400.446 298.934 400.876 299.791C401.306 300.649 401.554 301.585 401.605 302.543C401.655 303.501 401.507 304.458 401.17 305.356C400.833 306.254 400.313 307.072 399.644 307.759C398.976 308.446 398.172 308.987 397.284 309.349Z" fill="#596AFF"/>
<path opacity="0.1" d="M390.708 336.684C387.631 338.958 374.58 339.988 374.58 339.988C374.58 339.988 379.381 327.812 382.464 325.531C383.947 324.629 385.714 324.316 387.418 324.652C389.121 324.988 390.636 325.95 391.666 327.347C392.696 328.745 393.165 330.478 392.982 332.205C392.799 333.931 391.976 335.527 390.676 336.677L390.708 336.684Z" fill="#596AFF"/>
<path opacity="0.1" d="M369.274 282.607C372.021 285.274 384.814 288.042 384.814 288.042C384.814 288.042 381.655 275.335 378.932 272.662C378.297 271.949 377.522 271.376 376.655 270.976C375.788 270.577 374.849 270.36 373.895 270.34C372.94 270.319 371.992 270.496 371.109 270.858C370.227 271.221 369.428 271.761 368.763 272.446C368.098 273.13 367.581 273.945 367.244 274.838C366.908 275.731 366.759 276.684 366.807 277.638C366.855 278.591 367.099 279.524 367.523 280.379C367.947 281.234 368.543 281.993 369.274 282.607Z" fill="#596AFF"/>
<path opacity="0.1" d="M362.015 314.682C365.433 316.407 378.44 315.212 378.44 315.212C378.44 315.212 371.649 304.022 368.231 302.297C366.611 301.624 364.796 301.589 363.151 302.199C361.506 302.809 360.153 304.019 359.362 305.586C358.572 307.153 358.404 308.961 358.892 310.647C359.379 312.333 360.486 313.772 361.99 314.675L362.015 314.682Z" fill="#596AFF"/>
<path opacity="0.1" d="M359.242 346.819C362.318 349.094 375.37 350.124 375.37 350.124C375.37 350.124 370.569 337.947 367.486 335.666C366.002 334.765 364.235 334.451 362.532 334.787C360.829 335.123 359.313 336.085 358.283 337.483C357.254 338.881 356.784 340.613 356.967 342.34C357.15 344.067 357.973 345.662 359.274 346.813L359.242 346.819Z" fill="#596AFF"/>
<path opacity="0.5" d="M423.184 9.67404H419.217C419.592 9.69198 419.968 9.63343 420.32 9.50196C420.673 9.37049 420.995 9.16883 421.267 8.90919C421.539 8.64955 421.756 8.33733 421.904 7.99144C422.052 7.64556 422.129 7.2732 422.129 6.89694C422.129 6.52067 422.052 6.14833 421.904 5.80244C421.756 5.45656 421.539 5.14434 421.267 4.88469C420.995 4.62505 420.673 4.42339 420.32 4.29192C419.968 4.16045 419.592 4.1019 419.217 4.11984H387.05C386.337 4.15389 385.664 4.46134 385.171 4.97841C384.678 5.49549 384.403 6.18251 384.403 6.89694C384.403 7.61137 384.678 8.29838 385.171 8.81546C385.664 9.33254 386.337 9.64 387.05 9.67404H391.017C390.304 9.70809 389.631 10.0156 389.138 10.5326C388.645 11.0497 388.37 11.7367 388.37 12.4512C388.37 13.1656 388.645 13.8526 389.138 14.3697C389.631 14.8867 390.304 15.1942 391.017 15.2282H385.464C385.089 15.2103 384.713 15.2689 384.361 15.4003C384.008 15.5318 383.686 15.7335 383.414 15.9931C383.142 16.2527 382.925 16.565 382.777 16.9109C382.629 17.2567 382.552 17.6291 382.552 18.0054C382.552 18.3816 382.629 18.754 382.777 19.0999C382.925 19.4457 383.142 19.758 383.414 20.0176C383.686 20.2772 384.008 20.4789 384.361 20.6104C384.713 20.7418 385.089 20.8004 385.464 20.7825H417.606C417.982 20.8004 418.357 20.7418 418.71 20.6104C419.062 20.4789 419.384 20.2772 419.656 20.0176C419.929 19.758 420.145 19.4457 420.293 19.0999C420.441 18.754 420.518 18.3816 420.518 18.0054C420.518 17.6291 420.441 17.2567 420.293 16.9109C420.145 16.565 419.929 16.2527 419.656 15.9931C419.384 15.7335 419.062 15.5318 418.71 15.4003C418.357 15.2689 417.982 15.2103 417.606 15.2282H423.184C423.897 15.1942 424.57 14.8867 425.063 14.3697C425.556 13.8526 425.831 13.1656 425.831 12.4512C425.831 11.7367 425.556 11.0497 425.063 10.5326C424.57 10.0156 423.897 9.70809 423.184 9.67404Z" fill="#DEE3F3"/>
<path opacity="0.5" d="M237.322 25.8754H234.302C234.589 25.8911 234.877 25.8481 235.147 25.749C235.417 25.6499 235.664 25.4967 235.872 25.2989C236.081 25.1011 236.248 24.8628 236.361 24.5985C236.475 24.3342 236.534 24.0495 236.534 23.7618C236.534 23.4741 236.475 23.1894 236.361 22.9251C236.248 22.6608 236.081 22.4225 235.872 22.2246C235.664 22.0268 235.417 21.8737 235.147 21.7746C234.877 21.6754 234.589 21.6324 234.302 21.6481H209.842C209.302 21.6777 208.793 21.9133 208.421 22.3064C208.049 22.6996 207.841 23.2204 207.841 23.7618C207.841 24.3032 208.049 24.824 208.421 25.2171C208.793 25.6103 209.302 25.8458 209.842 25.8754H212.862C212.574 25.8597 212.287 25.9027 212.017 26.0018C211.747 26.101 211.5 26.2541 211.291 26.4519C211.082 26.6497 210.916 26.888 210.802 27.1523C210.688 27.4166 210.63 27.7013 210.63 27.989C210.63 28.2768 210.688 28.5615 210.802 28.8257C210.916 29.09 211.082 29.3284 211.291 29.5262C211.5 29.724 211.747 29.8771 212.017 29.9762C212.287 30.0754 212.574 30.1184 212.862 30.1027H208.635C208.348 30.087 208.061 30.13 207.791 30.2291C207.521 30.3282 207.274 30.4814 207.065 30.6792C206.856 30.877 206.69 31.1153 206.576 31.3796C206.462 31.6439 206.404 31.9286 206.404 32.2163C206.404 32.504 206.462 32.7887 206.576 33.053C206.69 33.3173 206.856 33.5556 207.065 33.7534C207.274 33.9512 207.521 34.1044 207.791 34.2035C208.061 34.3026 208.348 34.3457 208.635 34.3299H233.095C233.383 34.3457 233.67 34.3026 233.94 34.2035C234.21 34.1044 234.457 33.9512 234.666 33.7534C234.875 33.5556 235.041 33.3173 235.155 33.053C235.269 32.7887 235.327 32.504 235.327 32.2163C235.327 31.9286 235.269 31.6439 235.155 31.3796C235.041 31.1153 234.875 30.877 234.666 30.6792C234.457 30.4814 234.21 30.3282 233.94 30.2291C233.67 30.13 233.383 30.087 233.095 30.1027H237.322C237.862 30.0731 238.371 29.8375 238.743 29.4444C239.115 29.0512 239.322 28.5304 239.322 27.989C239.322 27.4476 239.115 26.9268 238.743 26.5337C238.371 26.1405 237.862 25.905 237.322 25.8754Z" fill="#DEE3F3"/>
<path d="M32.0151 325.266C32.0151 325.266 43.0701 346.971 34.0619 358.844C25.0537 370.717 34.8831 403.075 34.8831 403.075" stroke="#596AFF" stroke-miterlimit="10"/>
<path d="M35.3127 318.479C35.3127 322.662 32.2426 326.062 32.2426 326.062C32.2426 326.062 29.1725 322.669 29.1725 318.479C29.1725 314.29 32.2426 310.897 32.2426 310.897C32.2426 310.897 35.3127 314.296 35.3127 318.479Z" fill="#596AFF"/>
<path d="M37.7448 325.266C37.7448 325.266 26.6898 346.971 35.698 358.844C44.7062 370.717 34.8768 403.075 34.8768 403.075" stroke="#596AFF" stroke-miterlimit="10"/>
<path d="M34.4725 318.479C34.4725 322.662 37.5427 326.062 37.5427 326.062C37.5427 326.062 40.6128 322.669 40.6128 318.479C40.6128 314.29 37.5427 310.897 37.5427 310.897C37.5427 310.897 34.4725 314.296 34.4725 318.479Z" fill="#596AFF"/>
<path opacity="0.1" d="M34.4725 318.479C34.4725 322.662 37.5427 326.062 37.5427 326.062C37.5427 326.062 40.6128 322.669 40.6128 318.479C40.6128 314.29 37.5427 310.897 37.5427 310.897C37.5427 310.897 34.4725 314.296 34.4725 318.479Z" fill="#373737"/>
<path d="M42.2615 325.266C42.2615 325.266 53.3165 346.971 44.3083 358.844C35.3 370.717 45.1295 403.075 45.1295 403.075" stroke="#596AFF" stroke-miterlimit="10"/>
<path d="M45.5275 318.479C45.5275 322.662 42.4574 326.062 42.4574 326.062C42.4574 326.062 39.3872 322.669 39.3872 318.479C39.3872 314.29 42.4574 310.897 42.4574 310.897C42.4574 310.897 45.5275 314.296 45.5275 318.479Z" fill="#596AFF"/>
<path d="M43.8029 335.868C40.9034 338.883 36.3361 339.198 36.3361 339.198C36.3361 339.198 36.4751 334.624 39.3746 331.616C42.2742 328.608 46.8415 328.286 46.8415 328.286C46.8415 328.286 46.6835 332.848 43.8029 335.868Z" fill="#596AFF"/>
<path d="M44.0935 350.844C41.1939 353.858 36.6266 354.174 36.6266 354.174C36.6266 354.174 36.7656 349.599 39.6652 346.591C42.5647 343.584 47.132 343.261 47.132 343.261C47.132 343.261 46.993 347.824 44.0935 350.844Z" fill="#596AFF"/>
<path d="M28.3639 359.077C31.1055 362.237 31.0107 366.812 31.0107 366.812C31.0107 366.812 26.4687 366.262 23.7271 363.102C20.9855 359.943 21.0802 355.368 21.0802 355.368C21.0802 355.368 25.6222 355.918 28.3639 359.077Z" fill="#596AFF"/>
<path d="M30.8907 327.161C34.3778 329.474 35.5085 333.91 35.5085 333.91C35.5085 333.91 30.9855 334.598 27.4984 332.286C24.0114 329.973 22.8806 325.537 22.8806 325.537C22.8806 325.537 27.4226 324.836 30.8907 327.161Z" fill="#596AFF"/>
<path opacity="0.1" d="M30.8907 327.161C34.3778 329.474 35.5085 333.91 35.5085 333.91C35.5085 333.91 30.9855 334.598 27.4984 332.286C24.0114 329.973 22.8806 325.537 22.8806 325.537C22.8806 325.537 27.4226 324.836 30.8907 327.161Z" fill="#373737"/>
<path d="M47.9785 325.266C47.9785 325.266 36.9236 346.971 45.9318 358.844C54.94 370.717 45.1105 403.075 45.1105 403.075" stroke="#596AFF" stroke-miterlimit="10"/>
<path d="M44.7063 318.479C44.7063 322.662 47.7764 326.062 47.7764 326.062C47.7764 326.062 50.8465 322.669 50.8465 318.479C50.8465 314.29 47.7764 310.897 47.7764 310.897C47.7764 310.897 44.7063 314.296 44.7063 318.479Z" fill="#596AFF"/>
<path opacity="0.1" d="M44.7063 318.479C44.7063 322.662 47.7764 326.062 47.7764 326.062C47.7764 326.062 50.8465 322.669 50.8465 318.479C50.8465 314.29 47.7764 310.897 47.7764 310.897C47.7764 310.897 44.7063 314.296 44.7063 318.479Z" fill="#373737"/>
<path d="M45.5907 336.191C42.6532 339.173 42.4321 343.773 42.4321 343.773C42.4321 343.773 46.9994 343.514 49.9368 340.532C52.8743 337.549 53.0954 332.949 53.0954 332.949C53.0954 332.949 48.5281 333.208 45.5907 336.191Z" fill="#596AFF"/>
<path opacity="0.1" d="M45.5907 336.191C42.6532 339.173 42.4321 343.773 42.4321 343.773C42.4321 343.773 46.9994 343.514 49.9368 340.532C52.8743 337.549 53.0954 332.949 53.0954 332.949C53.0954 332.949 48.5281 333.208 45.5907 336.191Z" fill="#373737"/>
<path d="M51.3455 356.923C48.4081 359.905 48.187 364.505 48.187 364.505C48.187 364.505 52.7543 364.246 55.6917 361.264C58.6292 358.281 58.8503 353.681 58.8503 353.681C58.8503 353.681 54.2641 353.94 51.3455 356.923Z" fill="#596AFF"/>
<path d="M42.8932 352.367C42.8932 352.367 49.5452 341.878 58.8882 341.625" stroke="#596AFF" stroke-miterlimit="10"/>
<path d="M37.6942 346.029C37.6942 346.029 31.0423 335.54 21.6993 335.287" stroke="#596AFF" stroke-miterlimit="10"/>
<path d="M36.8288 361.005C36.8288 361.005 43.4808 350.515 52.8238 350.263" stroke="#596AFF" stroke-miterlimit="10"/>
<path d="M58.566 343.292C59.5185 343.292 60.2906 342.52 60.2906 341.568C60.2906 340.615 59.5185 339.843 58.566 339.843C57.6135 339.843 56.8414 340.615 56.8414 341.568C56.8414 342.52 57.6135 343.292 58.566 343.292Z" fill="#596AFF"/>
<path d="M21.8636 337.1C22.816 337.1 23.5881 336.328 23.5881 335.375C23.5881 334.423 22.816 333.651 21.8636 333.651C20.9111 333.651 20.139 334.423 20.139 335.375C20.139 336.328 20.9111 337.1 21.8636 337.1Z" fill="#596AFF"/>
<path d="M41.7246 364.442C41.7246 364.442 35.0726 353.953 25.7296 353.7" stroke="#596AFF" stroke-miterlimit="10"/>
<path d="M25.8939 355.525C26.8463 355.525 27.6184 354.753 27.6184 353.801C27.6184 352.848 26.8463 352.076 25.8939 352.076C24.9414 352.076 24.1693 352.848 24.1693 353.801C24.1693 354.753 24.9414 355.525 25.8939 355.525Z" fill="#596AFF"/>
<path d="M52.9501 352.075C53.9026 352.075 54.6747 351.303 54.6747 350.351C54.6747 349.398 53.9026 348.626 52.9501 348.626C51.9976 348.626 51.2255 349.398 51.2255 350.351C51.2255 351.303 51.9976 352.075 52.9501 352.075Z" fill="#596AFF"/>
<path d="M78.5092 390.444C78.5092 390.444 62.4763 387.234 58.1933 382.956C53.9103 378.678 34.681 371.197 32.5395 376.543C30.398 381.888 3.67657 400.067 21.8509 403.277C40.0253 406.487 64.6115 407.555 69.9558 405.413C75.3001 403.271 78.5092 390.444 78.5092 390.444Z" fill="#A8A8A8"/>
<path opacity="0.2" d="M21.8509 401.287C40.0253 404.497 64.6115 405.565 69.9558 403.423C74.024 401.792 76.8541 393.944 77.9722 390.33L78.5092 390.444C78.5092 390.444 75.3001 403.277 69.9558 405.413C64.6115 407.549 40.0253 406.481 21.8509 403.277C16.6077 402.348 15.1042 400.175 15.6728 397.426C16.115 399.195 17.9469 400.598 21.8509 401.287Z" fill="#373737"/>
<path d="M565.275 330.182C565.275 330.182 570.568 337.132 562.83 347.558C555.092 357.984 548.711 366.837 551.295 373.358C551.295 373.358 562.969 353.94 572.47 353.668C581.971 353.397 575.73 341.852 565.275 330.182Z" fill="#596AFF"/>
<path opacity="0.1" d="M565.275 330.182C565.736 330.851 566.1 331.583 566.355 332.355C575.628 343.249 580.562 353.416 571.655 353.675C563.354 353.915 553.399 368.758 551.011 372.511C551.09 372.801 551.184 373.085 551.295 373.364C551.295 373.364 562.969 353.947 572.47 353.675C581.971 353.403 575.73 341.852 565.275 330.182Z" fill="#373737"/>
<path d="M575.117 339.003C575.117 341.442 574.846 343.426 574.485 343.426C574.125 343.426 573.854 341.448 573.854 339.003C573.854 336.557 574.195 337.739 574.53 337.739C574.864 337.739 575.117 336.57 575.117 339.003Z" fill="#FFD037"/>
<path d="M578.496 341.916C576.355 343.084 574.491 343.811 574.333 343.489C574.176 343.167 575.774 342.004 577.915 340.841C580.057 339.679 579.21 340.525 579.375 340.841C579.539 341.157 580.632 340.747 578.496 341.916Z" fill="#FFD037"/>
<path d="M537.315 330.182C537.315 330.182 532.022 337.132 539.76 347.558C547.498 357.984 553.879 366.837 551.295 373.358C551.295 373.358 539.621 353.94 530.12 353.668C520.619 353.397 526.86 341.852 537.315 330.182Z" fill="#596AFF"/>
<path opacity="0.1" d="M537.315 330.182C536.854 330.851 536.49 331.583 536.235 332.355C526.962 343.249 522.028 353.416 530.935 353.675C539.236 353.915 549.191 368.758 551.579 372.511C551.501 372.801 551.406 373.085 551.295 373.364C551.295 373.364 539.621 353.947 530.12 353.675C520.619 353.403 526.86 341.852 537.315 330.182Z" fill="#373737"/>
<path d="M527.473 339.003C527.473 341.442 527.745 343.426 528.105 343.426C528.465 343.426 528.737 341.448 528.737 339.003C528.737 336.557 528.396 337.739 528.061 337.739C527.726 337.739 527.473 336.57 527.473 339.003Z" fill="#FFD037"/>
<path d="M524.093 341.916C526.235 343.084 528.098 343.811 528.256 343.489C528.414 343.167 526.816 342.004 524.675 340.841C522.533 339.679 523.38 340.525 523.215 340.841C523.051 341.157 521.952 340.747 524.093 341.916Z" fill="#FFD037"/>
<path d="M529.16 372.448C529.16 372.448 543.961 371.993 548.421 368.815C552.881 365.636 571.162 361.864 572.293 366.919C573.424 371.974 594.536 392.264 577.827 392.396C561.118 392.529 539.002 389.793 534.548 387.082C530.095 384.371 529.16 372.448 529.16 372.448Z" fill="#A8A8A8"/>
<path opacity="0.2" d="M578.124 390.646C561.415 390.779 539.299 388.043 534.845 385.332C531.453 383.266 530.101 375.854 529.653 372.435H529.16C529.16 372.435 530.095 384.378 534.548 387.089C539.002 389.799 561.118 392.542 577.827 392.403C582.653 392.365 584.315 390.646 584.226 388.106C583.557 389.654 581.744 390.614 578.124 390.646Z" fill="#373737"/>
<path opacity="0.5" d="M112.344 47.1634H108.376C108.752 47.1813 109.128 47.1228 109.48 46.9913C109.833 46.8598 110.155 46.6581 110.427 46.3985C110.699 46.1389 110.916 45.8266 111.064 45.4808C111.212 45.1349 111.288 44.7625 111.288 44.3863C111.288 44.01 111.212 43.6376 111.064 43.2918C110.916 42.9459 110.699 42.6337 110.427 42.374C110.155 42.1144 109.833 41.9127 109.48 41.7812C109.128 41.6498 108.752 41.5912 108.376 41.6092H76.235C75.5215 41.6432 74.8486 41.9507 74.3557 42.4677C73.8629 42.9848 73.5879 43.6718 73.5879 44.3863C73.5879 45.1007 73.8629 45.7877 74.3557 46.3048C74.8486 46.8219 75.5215 47.1293 76.235 47.1634H80.2021C79.4887 47.1974 78.8158 47.5049 78.3229 48.0219C77.83 48.539 77.5551 49.226 77.5551 49.9405C77.5551 50.6549 77.83 51.3419 78.3229 51.859C78.8158 52.3761 79.4887 52.6835 80.2021 52.7176H74.6494C73.936 52.7516 73.263 53.0591 72.7701 53.5762C72.2773 54.0932 72.0023 54.7802 72.0023 55.4947C72.0023 56.2091 72.2773 56.8961 72.7701 57.4132C73.263 57.9303 73.936 58.2377 74.6494 58.2718H106.791C107.167 58.2897 107.542 58.2312 107.895 58.0997C108.247 57.9682 108.569 57.7666 108.841 57.5069C109.114 57.2473 109.33 56.9351 109.478 56.5892C109.627 56.2433 109.703 55.8709 109.703 55.4947C109.703 55.1184 109.627 54.7461 109.478 54.4002C109.33 54.0543 109.114 53.7421 108.841 53.4824C108.569 53.2228 108.247 53.0211 107.895 52.8897C107.542 52.7582 107.167 52.6996 106.791 52.7176H112.344C113.057 52.6835 113.73 52.3761 114.223 51.859C114.716 51.3419 114.991 50.6549 114.991 49.9405C114.991 49.226 114.716 48.539 114.223 48.0219C113.73 47.5049 113.057 47.1974 112.344 47.1634Z" fill="#DEE3F3"/>
</g>
<defs>
<linearGradient id="paint0_linear" x1="290.903" y1="343.59" x2="290.903" y2="81.9925" gradientUnits="userSpaceOnUse">
<stop stop-color="#808080" stop-opacity="0.25"/>
<stop offset="0.54" stop-color="#808080" stop-opacity="0.12"/>
<stop offset="1" stop-color="#808080" stop-opacity="0.1"/>
</linearGradient>
<linearGradient id="paint1_linear" x1="241.866" y1="299.078" x2="241.866" y2="299.048" gradientUnits="userSpaceOnUse">
<stop stop-color="#808080" stop-opacity="0.25"/>
<stop offset="0.54" stop-color="#808080" stop-opacity="0.12"/>
<stop offset="1" stop-color="#808080" stop-opacity="0.1"/>
</linearGradient>
<linearGradient id="paint2_linear" x1="40679.4" y1="127765" x2="40679.4" y2="57283.2" gradientUnits="userSpaceOnUse">
<stop stop-color="#808080" stop-opacity="0.25"/>
<stop offset="0.54" stop-color="#808080" stop-opacity="0.12"/>
<stop offset="1" stop-color="#808080" stop-opacity="0.1"/>
</linearGradient>
<linearGradient id="paint3_linear" x1="114594" y1="154876" x2="114594" y2="50199.8" gradientUnits="userSpaceOnUse">
<stop stop-color="#808080" stop-opacity="0.25"/>
<stop offset="0.54" stop-color="#808080" stop-opacity="0.12"/>
<stop offset="1" stop-color="#808080" stop-opacity="0.1"/>
</linearGradient>
<clipPath id="clip0">
<rect width="600" height="418" fill="white"/>
</clipPath>
</defs>
</svg>
