<svg width="491" height="345" viewBox="0 0 491 345" fill="none" xmlns="http://www.w3.org/2000/svg">
<path opacity="0.1" d="M192.919 18.7483C211.405 2.30232 240.432 -1.03723 266.847 0.257821C349.826 4.37681 424.727 44.3615 489.514 89.5924C512.967 105.966 536.06 123.611 551.285 146.161C582.276 192.069 573.087 255.659 529.988 293.473C515.327 306.34 497.556 316.202 479.303 324.95C446.871 340.497 411.85 352.974 375.027 356.529C348.763 359.059 322.174 357.003 296.072 353.465C223.123 343.596 151.538 321.742 91.5316 284.402C65.2133 268.016 40.4025 247.649 29.5556 221.136C18.7088 194.624 25.6517 161.06 52.5526 145.352C63.6697 138.864 76.961 135.932 89.97 133.18C109.123 129.127 128.583 125.134 145.862 116.902C163.712 108.395 184.853 91.9427 181.297 73.1345C177.478 52.9173 174.475 35.1523 192.919 18.7483Z" fill="#6C63FF"/>
<path opacity="0.1" d="M104.553 96.4694C115.001 96.4694 123.472 88.0137 123.472 77.5832C123.472 67.1526 115.001 58.697 104.553 58.697C94.104 58.697 85.6337 67.1526 85.6337 77.5832C85.6337 88.0137 94.104 96.4694 104.553 96.4694Z" fill="#6C63FF"/>
<path opacity="0.1" d="M64.9189 44.3076C71.3871 44.3076 76.6306 39.0731 76.6306 32.6161C76.6306 26.1591 71.3871 20.9247 64.9189 20.9247C58.4507 20.9247 53.2072 26.1591 53.2072 32.6161C53.2072 39.0731 58.4507 44.3076 64.9189 44.3076Z" fill="#6C63FF"/>
<path d="M128.529 292.172L128.306 304.133L126.529 401.088L111.309 436.666L58.8589 437.266V297.682L113.598 293.353L128.529 292.172Z" fill="#5F5D7E"/>
<path opacity="0.1" d="M128.529 292.172L128.306 304.133L126.529 401.088L111.309 436.666L58.8589 437.266V297.682L113.598 293.353L128.529 292.172Z" fill="black"/>
<path d="M128.529 292.172L128.306 304.133L126.529 401.088L111.309 436.666L115.315 304.361L115.303 304.277L113.598 293.353L128.529 292.172Z" fill="#5F5D7E"/>
<path opacity="0.1" d="M113.598 293.353L128.529 292.172L128.306 304.133L115.303 304.277L58.8589 304.907V297.682L113.598 293.353Z" fill="black"/>
<path d="M600 286.374V297.682L0 304.361V289.972L56.4565 278.58L547.748 274.983L600 286.374Z" fill="#5F5D7E"/>
<path opacity="0.1" d="M600 286.374V297.682L0 304.361V289.972L600 286.374Z" fill="black"/>
<path d="M415.976 116.896H233.225C225.656 116.896 219.52 123.022 219.52 130.578V266.109C219.52 273.665 225.656 279.791 233.225 279.791H415.976C423.545 279.791 429.682 273.665 429.682 266.109V130.578C429.682 123.022 423.545 116.896 415.976 116.896Z" fill="#474157"/>
<path d="M413.081 131.592H236.432V264.472H413.081V131.592Z" fill="#EDEDF4"/>
<path d="M229.538 200.919C231.136 200.919 232.432 199.625 232.432 198.029C232.432 196.433 231.136 195.139 229.538 195.139C227.939 195.139 226.643 196.433 226.643 198.029C226.643 199.625 227.939 200.919 229.538 200.919Z" fill="#E6E8EC"/>
<path d="M420.907 203.107C423.544 203.107 425.682 200.973 425.682 198.341C425.682 195.708 423.544 193.574 420.907 193.574C418.27 193.574 416.132 195.708 416.132 198.341C416.132 200.973 418.27 203.107 420.907 203.107Z" fill="#E6E8EC"/>
<path d="M343.802 198.545L321.213 184.839C320.744 184.579 320.215 184.446 319.679 184.453C319.142 184.46 318.617 184.606 318.155 184.877C317.692 185.148 317.308 185.535 317.041 185.999C316.774 186.463 316.632 186.989 316.631 187.525V214.181C316.632 214.717 316.774 215.242 317.041 215.707C317.308 216.171 317.692 216.558 318.155 216.829C318.617 217.1 319.142 217.246 319.679 217.253C320.215 217.259 320.744 217.127 321.213 216.867L343.802 203.929C344.281 203.66 344.679 203.269 344.956 202.796C345.234 202.323 345.38 201.785 345.38 201.237C345.38 200.688 345.234 200.15 344.956 199.677C344.679 199.204 344.281 198.813 343.802 198.545ZM360.787 200.853C360.787 194.568 358.92 188.424 355.422 183.199C351.924 177.973 346.953 173.9 341.136 171.495C335.32 169.09 328.92 168.461 322.745 169.687C316.57 170.913 310.898 173.939 306.446 178.383C301.995 182.827 298.963 188.49 297.735 194.654C296.507 200.818 297.137 207.207 299.546 213.013C301.955 218.82 306.035 223.783 311.27 227.274C316.505 230.766 322.659 232.63 328.955 232.63C337.397 232.63 345.494 229.282 351.463 223.322C357.433 217.363 360.787 209.281 360.787 200.853ZM303.285 200.853C303.285 195.785 304.791 190.83 307.611 186.616C310.432 182.402 314.441 179.118 319.132 177.178C323.822 175.239 328.983 174.731 333.963 175.72C338.942 176.709 343.516 179.149 347.106 182.733C350.696 186.317 353.141 190.883 354.131 195.854C355.122 200.825 354.613 205.977 352.671 210.659C350.728 215.342 347.438 219.344 343.216 222.16C338.995 224.975 334.032 226.478 328.955 226.478C325.584 226.479 322.245 225.817 319.131 224.529C316.016 223.242 313.186 221.354 310.802 218.974C308.418 216.595 306.527 213.77 305.238 210.66C303.948 207.551 303.284 204.218 303.285 200.853Z" fill="#6C63FF"/>
<path d="M482.811 305.26C482.691 304.527 482.462 303.816 482.132 303.15C482.589 301.597 482.883 300.644 482.883 300.644C482.883 300.644 482.883 300.416 482.811 300.044C482.453 297.847 481.309 295.854 479.592 294.434C477.875 293.015 475.7 292.264 473.471 292.322C469.868 292.388 463.033 292.628 455.453 293.479C455.886 290.451 456.402 286.83 456.943 283.101L457.934 283.209C458.162 283.209 458.402 283.209 458.643 283.245H458.961C459.751 283.294 460.532 283.055 461.159 282.573C461.313 282.424 461.427 282.239 461.492 282.035C461.556 281.831 461.569 281.614 461.529 281.404C461.489 281.194 461.398 280.997 461.263 280.83C461.128 280.664 460.954 280.533 460.757 280.451C461.643 280.539 462.536 280.405 463.357 280.062C464.179 279.718 464.901 279.176 465.459 278.484C465.969 277.772 466.243 276.919 466.243 276.044C466.243 275.169 465.969 274.316 465.459 273.604C464.192 271.805 461.507 270.606 461.363 268.489C461.285 267.29 462.09 266.211 462.721 265.15C464.241 262.501 464.848 259.427 464.45 256.4C464.052 253.373 462.67 250.56 460.516 248.392C459.671 247.555 458.781 246.765 457.85 246.024C456.528 241.179 455.147 236.851 454.739 236.713C454.21 236.539 453.303 235.4 452.438 234.422C452.518 233.598 452.503 232.767 452.396 231.946C451.76 227.749 447.592 224.751 445.297 221.046C443.003 217.341 442.589 212.802 443.177 208.557C443.766 204.312 445.249 200.205 446.456 196.062C447.357 192.987 448.108 189.719 447.099 186.667C446.384 184.491 444.829 182.608 443.225 180.84C439.375 176.589 434.937 172.608 429.459 170.047C425.652 168.256 421.482 167.365 417.273 167.445H417.231L416.571 167.481L416.102 167.511L415.634 167.559L415.135 167.607C414.625 167.673 414.12 167.751 413.616 167.853C409.957 167.041 406.222 166.623 402.474 166.606H401.988C400.876 166.54 399.77 166.801 398.805 167.355C397.471 168.285 397.303 169.952 396.901 171.402C396.178 173.831 394.654 175.944 392.577 177.398C391.141 178.429 389.453 179.197 388.084 180.276C386.715 181.355 385.646 182.974 386.012 184.569C386.318 185.906 387.568 186.901 389.015 187.507C388.841 187.723 388.661 187.932 388.492 188.154C388.775 188.268 389.093 188.37 389.351 188.454C391.153 188.988 393.093 189.054 394.919 189.539C395.421 189.673 395.915 189.84 396.396 190.037C394.772 193.086 393.925 196.488 393.928 199.942C393.935 203.777 394.977 207.54 396.945 210.834C398.913 214.128 401.734 216.831 405.111 218.66C405.111 218.864 405.111 219.062 405.111 219.259C405.297 225.519 404.823 233.133 401.616 234.422C398.408 235.711 395.339 237.168 393.447 238.11L392.847 238.427C392.348 238.2 391.85 237.96 391.363 237.708C391.363 237.708 388.811 237.408 389.255 239.351C389.255 239.351 381.538 238.152 377.303 241.443C373.069 244.735 366.12 251.606 364.757 253.398C363.393 255.191 352.853 259.112 352.853 259.112C352.853 259.112 356.174 254.478 354.739 248.8C354.739 248.8 353.153 241.953 353.91 239.207C354.667 236.461 356.631 226.268 356.631 226.268C356.631 226.268 356.907 215.512 351.027 210.578C345.147 205.643 341.057 201.584 343.327 206.381C344.32 208.58 345.43 210.723 346.655 212.802C346.655 212.802 332.595 216.136 337.586 221.34C342.577 226.544 343.934 226.55 343.934 226.55C343.934 226.55 342.27 239.399 341.964 241.791C341.658 244.183 338.961 262.41 338.961 262.41C338.961 262.41 338.811 271.079 340.324 272.423C340.324 272.423 341.315 278.004 347.58 277.819C347.58 277.819 359.519 277.519 362.847 276.176C366.174 274.833 377.658 267.656 378.871 268.106C378.959 268.141 379.039 268.194 379.105 268.262C379.17 268.317 379.23 268.377 379.285 268.441C378.084 271.097 375.237 280.115 376.45 284.546C376.45 284.546 375.393 297.094 381.742 301.13C381.742 301.13 390.961 316.67 387.483 325.034C387.207 325.712 386.961 326.335 386.733 326.941C381.453 322.57 373.399 318.547 361.099 316.322C359.844 316.095 358.595 315.819 357.357 315.519C353.862 314.674 344.246 313.9 339.67 329.075C338.602 332.603 337.244 336.036 335.61 339.34C333.808 342.979 331.808 348.195 331.766 353.369C331.664 360.624 335.417 367.813 349.039 370.451C349.189 375.847 349.808 382.274 351.658 386.897C355.435 396.31 361.483 411.551 361.483 411.551C361.483 411.551 368.739 427.091 369.195 433.363C369.489 437.47 369.922 442.854 369.622 446.553C369.622 446.781 369.586 446.997 369.562 447.213C368.939 447.883 368.26 448.499 367.532 449.053C366.474 449.653 362.997 453.388 362.997 454.281C363.004 455.137 363.081 455.992 363.225 456.835C361.58 458.268 360.679 459.833 360.679 461.392C360.679 469.498 383.724 476.069 412.15 476.069C440.577 476.069 463.616 469.474 463.616 461.392C463.616 453.994 444.396 447.878 419.423 446.871C424.631 444.796 429.255 442.62 431.171 440.875C431.582 440.555 431.896 440.128 432.078 439.64L427.243 428.434C427.243 428.434 426.865 428.518 426.306 428.68L425.97 428.176C423.82 424.909 419.682 418.398 419.682 416.629C419.682 415.975 418.589 411.796 417.003 406.071V387.694C432.775 390.092 453.099 386.831 453.099 386.831L453.189 386.783H453.586V386.567C456.318 385.056 469.988 377.064 474.042 366.464C475.243 363.37 473.748 358.939 470.775 354.203C472.853 349.052 477.982 335.748 477.471 330.442C477.471 330.16 477.435 329.842 477.435 329.531C477.484 328.989 477.504 328.444 477.495 327.9C478.096 320.106 482.901 305.866 482.901 305.866C482.901 305.866 482.871 305.62 482.811 305.26ZM380.709 270.63C381.802 272.548 382.973 275.001 383.435 275.996C383.435 275.996 381.838 273.058 380.739 270.63H380.709ZM381.85 438.567L381.736 438.609V438.009C381.67 436.446 381.709 434.879 381.85 433.321C381.866 432.481 381.69 431.648 381.333 430.886C379.482 426.244 378.245 421.381 377.652 416.419C377.051 411.191 376.553 405.489 376.865 404.038C377.333 401.814 377.718 384.966 377.135 376.662L386.432 378.749L397.243 400.753C397.243 400.753 404.198 411.497 406.354 419.974V428.464C405.724 430.993 404.621 433.381 403.105 435.503C401.67 437.464 400.27 439.448 398.973 441.499C398.577 442.134 398.138 442.788 397.7 443.399C397.556 443.399 390.45 443.813 389.243 445.144C388.498 445.965 387.201 447.26 386.985 448.562L386.679 448.609C385.285 444.467 381.88 438.567 381.88 438.567H381.85Z" fill="url(#paint0_linear)"/>
<path d="M392.655 346.103C392.655 346.103 427.357 337.187 435.994 330.514C444.631 323.841 478.547 355.24 474.066 367.087C469.586 378.935 453.273 387.514 453.273 387.514C453.273 387.514 408.162 394.841 400.48 379.558C392.799 364.275 392.655 346.103 392.655 346.103Z" fill="#474157"/>
<path opacity="0.1" d="M392.655 346.103C392.655 346.103 427.357 337.187 435.994 330.514C444.631 323.841 478.547 355.24 474.066 367.087C469.586 378.935 453.273 387.514 453.273 387.514C453.273 387.514 408.162 394.841 400.48 379.558C392.799 364.275 392.655 346.103 392.655 346.103Z" fill="black"/>
<path d="M389.652 342.505C389.652 342.505 424.354 333.59 432.991 326.917C441.628 320.243 475.544 351.642 471.063 363.49C466.583 375.337 450.27 383.917 450.27 383.917C450.27 383.917 405.159 391.243 397.477 375.961C389.796 360.678 389.652 342.505 389.652 342.505Z" fill="#474157"/>
<path d="M357.465 260.749L353.712 259.388C353.712 259.388 357.015 254.741 355.592 249.046C355.592 249.046 354.012 242.175 354.763 239.393C355.513 236.611 357.465 226.412 357.465 226.412C357.465 226.412 357.742 215.62 351.898 210.674C346.054 205.727 342 201.68 344.252 206.477C345.236 208.683 346.339 210.835 347.556 212.922C347.556 212.922 333.592 216.262 338.547 221.49C343.501 226.718 344.853 226.712 344.853 226.712C344.853 226.712 343.201 239.603 342.901 242.001C342.601 244.399 339.898 262.686 339.898 262.686C339.898 262.686 339.748 271.379 341.249 272.728C341.583 274.351 342.5 275.796 343.828 276.791C345.156 277.785 346.802 278.259 348.456 278.124C349.526 278.106 362.27 264.047 357.465 260.749Z" fill="#FDC2CC"/>
<path d="M448.156 233.169V241.563L439.447 244.399L424.613 255.299L420.679 258.189L403.111 251.144L392 239.453C392 239.453 392.541 239.159 393.477 238.673L394.078 238.355C395.958 237.414 398.919 235.957 402.192 234.656C405.465 233.355 405.85 225.729 405.664 219.445V218.846C405.514 214.439 405.063 210.836 405.063 210.836C405.063 210.836 406.895 210.488 409.562 210.092C416.955 208.995 430.751 207.514 429.538 212.035C429.183 213.572 429.183 215.169 429.538 216.705C429.574 216.873 429.61 217.047 429.652 217.215C430.901 222.665 434.769 228.373 434.769 228.373L446.781 232.69L447.117 232.81L448.156 233.169Z" fill="#FDC2CC"/>
<path d="M448.156 235.717V233.169C449.1 233.007 450.065 233.007 451.009 233.169C452.06 233.469 454.054 236.617 454.955 236.917C455.856 237.216 461.369 257.751 460.769 259.55C460.168 261.349 454.493 301.957 454.493 301.957L443.051 314.548L440.799 279.923L448.156 259.388V235.717Z" fill="#FDC2CC"/>
<path d="M388.847 329.998C388.847 329.998 378.39 332.247 379.718 335.544C381.045 338.842 386.895 338.992 386.895 338.992L388.847 329.998Z" fill="#FDC2CC"/>
<path d="M403.411 263.417L395.453 280.535L385.994 287.43L384.342 276.775C384.342 276.775 381.147 269.731 379.772 268.537C379.705 268.47 379.626 268.417 379.538 268.381C378.336 267.932 366.925 275.127 363.622 276.476C360.318 277.825 348.456 278.124 348.456 278.124L353.712 259.388C353.712 259.388 364.222 255.491 365.574 253.692C366.925 251.894 373.832 244.999 378.036 241.701C382.24 238.403 389.91 239.603 389.91 239.603L390.03 239.651L392 240.502L397.706 254.442L403.411 263.417Z" fill="#FDC2CC"/>
<path d="M382.541 434.172C382.399 435.735 382.361 437.305 382.426 438.873C382.468 440.545 382.541 441.966 382.541 441.966L379.087 449.161C379.087 449.161 367.225 453.058 369.177 451.409C369.856 450.84 370.204 449.359 370.378 447.398C370.673 443.693 370.246 438.291 369.952 434.172C369.501 427.877 362.294 412.288 362.294 412.288C362.294 412.288 356.288 396.999 352.535 387.556C348.781 378.113 350.132 361.026 350.132 361.026C350.132 361.026 350.733 348.135 353.435 344.238C356.138 340.341 366.649 338.992 366.649 338.992L371.58 355.318C371.58 355.318 375.634 370.607 377.135 372.855C378.637 375.103 378.186 401.934 377.586 404.782C377.279 406.239 377.796 411.976 378.372 417.204C378.961 422.177 380.188 427.054 382.024 431.714C382.382 432.483 382.559 433.324 382.541 434.172Z" fill="#FDC2CC"/>
<path opacity="0.1" d="M429.676 217.215C425.964 220.267 422.553 219.829 417.369 219.829C413.622 219.829 408.751 221.142 405.682 219.457C405.556 214.775 405.081 210.836 405.081 210.836C405.081 210.836 431.207 205.889 429.556 212.035C429.178 213.746 429.219 215.523 429.676 217.215Z" fill="black"/>
<path d="M437.496 200.068C437.496 205.752 435.233 211.204 431.207 215.224C427.18 219.244 421.719 221.502 416.024 221.502C415.471 221.502 414.919 221.502 414.378 221.442C410.215 221.121 406.235 219.595 402.927 217.051C399.618 214.507 397.125 211.055 395.752 207.118C394.379 203.181 394.186 198.929 395.197 194.884C396.207 190.839 398.378 187.176 401.442 184.344C404.506 181.511 408.331 179.632 412.449 178.937C416.566 178.242 420.798 178.76 424.625 180.429C428.452 182.098 431.708 184.844 433.995 188.332C436.282 191.82 437.501 195.899 437.502 200.068H437.496Z" fill="#FDC2CC"/>
<path opacity="0.1" d="M397.706 254.454L403.411 263.447L395.453 280.565L385.994 287.46L384.342 276.775C384.342 276.775 381.147 269.731 379.772 268.537C380.168 267.572 380.438 267.128 380.438 267.482C380.438 268.981 384.132 275.726 384.132 275.726C395.544 271.829 392 256.69 392 256.69C392 256.69 390.583 243.2 390.03 239.651L392 240.502L397.706 254.454Z" fill="black"/>
<path opacity="0.1" d="M448.156 233.169V241.563L439.447 244.399L424.613 255.299L420.679 258.189L403.111 251.144L392 239.453C392 239.453 392.541 239.159 393.477 238.673L394.078 238.355C401.808 241.863 410.174 243.152 416.15 243.614C418.898 243.846 421.658 243.908 424.414 243.799C447.039 240.202 447.712 234.746 447.147 232.81L448.156 233.169Z" fill="black"/>
<path d="M454.613 369.108C448.949 371.88 443.134 374.332 437.195 376.452C426.835 380.2 404.012 375.253 401.159 374.504C398.306 373.754 376.384 365.061 367.976 361.763C359.568 358.466 357.465 361.164 355.514 360.864C353.562 360.564 352.21 356.817 351.91 355.767C351.61 354.718 357.315 345.575 360.468 340.928C363.622 336.282 373.081 337.181 374.432 336.881C375.784 336.582 385.243 336.881 385.243 336.881C385.243 336.881 384.643 333.884 388.096 325.49C391.55 317.096 382.39 301.507 382.39 301.507C376.084 297.46 377.135 284.869 377.135 284.869C375.634 279.323 380.438 266.583 380.438 268.082C380.438 269.581 384.132 276.326 384.132 276.326C395.544 272.429 392 257.29 392 257.29C392 257.29 390.348 241.551 389.91 239.603C389.471 237.654 392 237.954 392 237.954C392.488 238.206 392.981 238.445 393.477 238.673C401.381 242.391 410.03 243.746 416.168 244.213C418.916 244.446 421.676 244.508 424.432 244.399C451.862 239.98 447.003 232.935 446.823 232.684L448.156 233.157C458.066 240.352 455.063 264.185 455.063 264.185L451.351 281.974L448.595 295.224C448.595 295.224 458.354 354.281 459.255 357.278C460.156 360.276 454.613 369.108 454.613 369.108Z" fill="#6C63FF"/>
<path opacity="0.1" d="M381.489 342.128C380.889 342.577 374.132 356.517 379.087 360.414C384.042 364.311 381.489 342.128 381.489 342.128Z" fill="black"/>
<path opacity="0.1" d="M386.294 344.088C386.444 344.538 400.408 366.721 408.066 368.52L386.294 344.088Z" fill="black"/>
<path opacity="0.1" d="M419.934 168.543L417.7 169.017C418.315 168.79 418.945 168.604 419.586 168.459L419.934 168.543Z" fill="black"/>
<path opacity="0.1" d="M453.58 264.185L449.375 281.962C447.23 280.985 445.259 279.667 443.538 278.058C442.198 276.787 440.997 275.33 439.273 274.497C437.057 273.424 434.384 273.568 431.868 273.478C428.724 273.361 425.61 272.828 422.607 271.895C421.734 271.676 420.916 271.28 420.204 270.732C418.775 269.473 418.871 267.44 419.003 265.665C419.264 262.216 419.294 258.753 419.093 255.299C419.057 254.652 419.009 254.004 418.955 253.356C418.715 250.461 417.934 247.103 414.967 245.862C413.441 245.262 411.622 245.31 410.162 244.585C409.951 244.479 409.75 244.355 409.562 244.213C407.399 242.702 407.201 239.674 407.285 237.126C407.413 233.625 407.536 230.121 407.652 226.616C407.761 224.887 407.723 223.152 407.538 221.43C407.393 220.286 407.077 219.17 406.601 218.12C405.297 215.338 402.583 213.018 402.096 210.08C402.069 209.944 402.051 209.805 402.042 209.666C401.79 207.04 403.448 204.594 404.03 202.01C405.195 196.812 401.279 191.116 395.52 189.623C393.718 189.156 391.784 189.066 389.988 188.532C389.701 188.446 389.418 188.346 389.141 188.232C393.49 182.44 400.943 178.639 409.405 178.639C422.817 178.639 433.694 188.232 433.694 200.074C433.694 206.789 430.192 212.778 424.721 216.711C424.757 216.879 424.799 217.053 424.847 217.221C426.258 222.671 430.637 228.379 430.637 228.379L444.234 232.696L445.748 233.175C456.979 240.364 453.58 264.185 453.58 264.185Z" fill="black"/>
<path opacity="0.1" d="M460.961 281.404C460.829 281.404 460.703 281.374 460.577 281.35C460.707 281.336 460.839 281.355 460.961 281.404Z" fill="black"/>
<path d="M414.523 167.949C410.765 167.078 406.921 166.629 403.063 166.612C401.808 166.612 400.462 166.678 399.459 167.367C398.132 168.297 397.964 169.976 397.568 171.426C396.85 173.849 395.338 175.961 393.273 177.422C391.85 178.459 390.174 179.221 388.811 180.312C387.447 181.403 386.408 183.022 386.751 184.617C387.093 186.212 388.889 187.441 390.691 187.95C392.493 188.46 394.408 188.55 396.222 189.042C401.982 190.534 405.892 196.236 404.727 201.423C404.126 204.007 402.487 206.453 402.739 209.079C403.033 212.215 405.934 214.631 407.297 217.539C408.541 220.189 408.456 223.163 408.36 226.028L407.994 236.545C407.898 239.315 408.138 242.648 410.877 244.003C412.342 244.723 414.168 244.645 415.682 245.28C418.649 246.515 419.429 249.879 419.67 252.769C420.013 256.864 420.029 260.98 419.718 265.078C419.58 266.877 419.484 268.885 420.919 270.144C421.63 270.695 422.448 271.091 423.321 271.307C426.325 272.241 429.439 272.773 432.583 272.89C435.105 272.986 437.772 272.842 439.988 273.909C441.712 274.743 442.913 276.206 444.252 277.471C448.092 280.978 452.988 283.118 458.174 283.556C459.285 283.652 460.547 283.628 461.321 282.915C462.096 282.201 461.64 280.66 460.535 280.75C461.473 280.908 462.437 280.812 463.326 280.472C464.216 280.133 464.998 279.562 465.592 278.82C466.097 278.103 466.368 277.247 466.368 276.371C466.368 275.494 466.097 274.639 465.592 273.921C464.336 272.123 461.67 270.924 461.526 268.789C461.447 267.59 462.246 266.505 462.871 265.438C464.377 262.78 464.978 259.707 464.584 256.68C464.189 253.652 462.821 250.834 460.685 248.65C457.868 245.742 453.646 243.536 452.661 239.806C452.006 237.312 452.997 234.692 452.619 232.156C452.018 227.959 447.856 224.961 445.568 221.22C443.279 217.479 442.877 212.952 443.459 208.695C444.042 204.438 445.52 200.301 446.721 196.164C447.616 193.077 448.354 189.797 447.357 186.733C446.643 184.557 445.105 182.668 443.508 180.888C439.682 176.625 435.279 172.632 429.838 170.095C424.396 167.559 417.766 166.576 411.988 168.453" fill="#474157"/>
<path opacity="0.1" d="M414.523 167.949C410.765 167.078 406.921 166.629 403.063 166.612C401.808 166.612 400.462 166.678 399.459 167.367C398.132 168.297 397.964 169.976 397.568 171.426C396.85 173.849 395.338 175.961 393.273 177.422C391.85 178.459 390.174 179.221 388.811 180.312C387.447 181.403 386.408 183.022 386.751 184.617C387.093 186.212 388.889 187.441 390.691 187.95C392.493 188.46 394.408 188.55 396.222 189.042C401.982 190.534 405.892 196.236 404.727 201.423C404.126 204.007 402.487 206.453 402.739 209.079C403.033 212.215 405.934 214.631 407.297 217.539C408.541 220.189 408.456 223.163 408.36 226.028L407.994 236.545C407.898 239.315 408.138 242.648 410.877 244.003C412.342 244.723 414.168 244.645 415.682 245.28C418.649 246.515 419.429 249.879 419.67 252.769C420.013 256.864 420.029 260.98 419.718 265.078C419.58 266.877 419.484 268.885 420.919 270.144C421.63 270.695 422.448 271.091 423.321 271.307C426.325 272.241 429.439 272.773 432.583 272.89C435.105 272.986 437.772 272.842 439.988 273.909C441.712 274.743 442.913 276.206 444.252 277.471C448.092 280.978 452.988 283.118 458.174 283.556C459.285 283.652 460.547 283.628 461.321 282.915C462.096 282.201 461.64 280.66 460.535 280.75C461.473 280.908 462.437 280.812 463.326 280.472C464.216 280.133 464.998 279.562 465.592 278.82C466.097 278.103 466.368 277.247 466.368 276.371C466.368 275.494 466.097 274.639 465.592 273.921C464.336 272.123 461.67 270.924 461.526 268.789C461.447 267.59 462.246 266.505 462.871 265.438C464.377 262.78 464.978 259.707 464.584 256.68C464.189 253.652 462.821 250.834 460.685 248.65C457.868 245.742 453.646 243.536 452.661 239.806C452.006 237.312 452.997 234.692 452.619 232.156C452.018 227.959 447.856 224.961 445.568 221.22C443.279 217.479 442.877 212.952 443.459 208.695C444.042 204.438 445.52 200.301 446.721 196.164C447.616 193.077 448.354 189.797 447.357 186.733C446.643 184.557 445.105 182.668 443.508 180.888C439.682 176.625 435.279 172.632 429.838 170.095C424.396 167.559 417.766 166.576 411.988 168.453" fill="black"/>
<path opacity="0.1" d="M382.39 301.519C382.39 301.519 387.496 303.468 392.901 298.072C398.306 292.676 382.39 301.519 382.39 301.519Z" fill="black"/>
<g opacity="0.1">
<path opacity="0.1" d="M416.781 167.86C417.772 167.663 418.775 167.536 419.784 167.481C418.381 167.396 416.974 167.44 415.58 167.614L416.781 167.86Z" fill="black"/>
<path opacity="0.1" d="M446.895 277.471C445.55 276.206 444.354 274.743 442.625 273.909C440.414 272.842 437.742 272.986 435.219 272.89C432.075 272.775 428.961 272.243 425.958 271.307C425.085 271.091 424.266 270.695 423.556 270.144C422.126 268.885 422.228 266.859 422.354 265.078C422.666 260.98 422.65 256.864 422.306 252.769C422.06 249.879 421.285 246.515 418.312 245.28C416.793 244.645 414.973 244.723 413.507 244.003C410.769 242.648 410.504 239.315 410.619 236.545C410.743 233.039 410.865 229.536 410.985 226.034C411.087 223.163 411.165 220.189 409.922 217.539C408.559 214.631 405.658 212.221 405.363 209.079C405.117 206.459 406.775 204.007 407.357 201.423C408.523 196.224 404.607 190.534 398.847 189.042C397.045 188.574 395.111 188.478 393.315 187.95C391.519 187.423 389.778 186.284 389.405 184.653C389.033 183.022 390.096 181.439 391.459 180.342C392.823 179.245 394.498 178.489 395.928 177.452C397.993 175.992 399.504 173.88 400.216 171.456C400.619 170.006 400.817 168.333 402.108 167.397C402.848 166.939 403.7 166.691 404.571 166.678C404.036 166.678 403.501 166.648 402.973 166.648C401.718 166.648 400.372 166.714 399.369 167.397C398.042 168.333 397.874 170.006 397.477 171.456C396.76 173.879 395.248 175.991 393.183 177.452C391.76 178.489 390.084 179.251 388.721 180.342C387.357 181.433 386.318 183.052 386.661 184.653C387.003 186.254 388.781 187.417 390.577 187.95C392.372 188.484 394.294 188.55 396.108 189.042C401.868 190.534 405.778 196.236 404.613 201.423C404.012 204.007 402.372 206.459 402.625 209.079C402.919 212.221 405.82 214.631 407.183 217.539C408.426 220.189 408.348 223.163 408.246 226.034C408.122 229.536 408 233.039 407.88 236.545C407.784 239.315 408.024 242.648 410.763 244.003C412.228 244.723 414.054 244.645 415.568 245.28C418.535 246.515 419.315 249.879 419.556 252.769C419.899 256.864 419.915 260.98 419.604 265.078C419.465 266.877 419.369 268.885 420.805 270.144C421.515 270.695 422.334 271.091 423.207 271.307C426.21 272.244 429.325 272.776 432.468 272.89C434.991 272.986 437.658 272.842 439.874 273.909C441.598 274.743 442.799 276.206 444.144 277.471C447.981 280.979 452.875 283.12 458.06 283.556C458.731 283.636 459.41 283.61 460.072 283.478C455.155 282.912 450.544 280.809 446.895 277.471Z" fill="black"/>
</g>
<path opacity="0.1" d="M353.712 259.388C353.712 259.388 348.907 263.789 349.61 265.588C350.312 267.386 353.712 259.388 353.712 259.388Z" fill="black"/>
<path d="M358.168 315.957C354.703 315.111 345.147 314.332 340.601 329.555C339.542 333.091 338.194 336.534 336.571 339.849C332.21 348.789 326.577 367.171 351.351 371.218L410.811 384.708C410.811 384.708 442.643 388.605 444.745 387.107C446.847 385.608 446.547 382.31 446.547 382.31C446.547 382.31 411.411 382.31 404.505 371.518C397.598 360.726 397.297 346.037 397.297 346.037C397.297 346.037 398.162 323.355 361.862 316.766C360.661 316.538 359.399 316.256 358.168 315.957Z" fill="#474157"/>
<path opacity="0.1" d="M358.168 316.059C354.703 315.213 345.147 314.434 340.601 329.663C339.542 333.199 338.194 336.642 336.571 339.957C332.21 348.891 326.577 367.273 351.351 371.32L410.811 384.81C410.811 384.81 442.643 388.707 444.745 387.208C446.847 385.71 446.547 382.412 446.547 382.412C446.547 382.412 411.411 382.412 404.505 371.62C397.598 360.828 397.297 346.139 397.297 346.139C397.297 346.139 398.162 323.457 361.862 316.868C360.661 316.64 359.399 316.346 358.168 316.059Z" fill="black"/>
<path d="M482.811 300.446C482.467 298.252 481.336 296.257 479.629 294.832C477.923 293.407 475.756 292.65 473.532 292.7C464.979 292.856 438.655 293.995 426.426 301.969C426.426 301.969 417.117 307.964 414.414 307.964C411.712 307.964 375.075 339.142 429.429 367.021C429.429 367.021 458.559 375.295 469.97 355.869C469.97 355.869 478.078 335.005 477.478 327.78C476.877 320.555 482.883 301.07 482.883 301.07C482.883 301.07 482.871 300.836 482.811 300.446Z" fill="#474157"/>
<path opacity="0.1" d="M482.811 305.698C482.126 301.501 478.126 298.467 473.532 298.545C464.979 298.689 438.655 299.745 426.426 307.101C426.426 307.101 417.117 312.635 414.414 312.635C411.712 312.635 375.075 341.414 429.429 367.153C429.429 367.153 458.559 374.792 469.97 356.859C469.97 356.859 478.078 337.595 477.478 330.928C476.877 324.261 482.883 306.274 482.883 306.274C482.883 306.274 482.871 306.058 482.811 305.698Z" fill="black"/>
<path opacity="0.1" d="M102.246 283.952C117.186 283.952 129.297 283.176 129.297 282.219C129.297 281.262 117.186 280.487 102.246 280.487C87.3064 280.487 75.1952 281.262 75.1952 282.219C75.1952 283.176 87.3064 283.952 102.246 283.952Z" fill="black"/>
<path d="M124.949 215.392C124.373 216.181 123.912 217.047 123.58 217.964C123.495 218.192 123.411 218.444 123.327 218.69C123.176 218.618 123.017 218.564 122.853 218.528C122.153 218.353 121.429 218.29 120.709 218.342C120.709 218.066 120.745 217.743 120.751 217.467C120.841 214.307 120.468 209.9 117.447 211.765C114.553 213.564 116.619 216.561 118.486 218.486L118.967 218.954C117.261 220.153 116.937 222.989 116.655 225.933C116.372 228.876 113.868 232.102 112.204 233.931C112.036 234.117 111.886 234.284 111.736 234.44C111.064 233.903 110.286 233.515 109.452 233.301C108.618 233.087 107.749 233.052 106.901 233.199C106.835 232.941 106.757 232.672 106.679 232.384C105.333 227.539 102.541 219.14 98.979 217.299L99.4474 216.699C100.961 214.721 102.667 211.789 100.15 211.033C97.6336 210.278 97.4054 213.582 97.5435 216.052C97.5435 216.364 97.5916 216.651 97.6156 216.927C97.1128 216.951 96.6203 217.078 96.168 217.298C95.7157 217.519 95.3132 217.829 94.985 218.21L94.5946 217.755C92.5525 215.356 88.8108 211.537 87.6757 214.421C86.6186 217.107 89.9159 220.59 92.2342 222.611L92.3784 222.737C90.8228 229.05 97.5976 234.207 101.273 236.437L101.748 236.725C96.7027 242.66 93.5856 253.782 93.5856 253.782L107.712 256.3C107.712 256.3 117.081 248.236 115.88 240.658H115.976C125.339 238.787 127.465 228.822 126.006 222.905L126.174 222.839C127.879 222.14 129.373 221.012 130.51 219.565C133.129 215.926 127.628 211.825 124.949 215.392Z" fill="#6C63FF"/>
<path opacity="0.1" d="M124.949 215.392C124.373 216.181 123.912 217.047 123.58 217.964C123.495 218.192 123.411 218.444 123.327 218.69C123.176 218.618 123.017 218.564 122.853 218.528C122.153 218.353 121.429 218.29 120.709 218.342C120.709 218.066 120.745 217.743 120.751 217.467C120.841 214.307 120.468 209.9 117.447 211.765C114.553 213.564 116.619 216.561 118.486 218.486L118.967 218.954C117.261 220.153 116.937 222.989 116.655 225.933C116.372 228.876 113.868 232.102 112.204 233.931C112.036 234.117 111.886 234.284 111.736 234.44C111.064 233.903 110.286 233.515 109.452 233.301C108.618 233.087 107.749 233.052 106.901 233.199C106.835 232.941 106.757 232.672 106.679 232.384C105.333 227.539 102.541 219.14 98.979 217.299L99.4474 216.699C100.961 214.721 102.667 211.789 100.15 211.033C97.6336 210.278 97.4054 213.582 97.5435 216.052C97.5435 216.364 97.5916 216.651 97.6156 216.927C97.1128 216.951 96.6203 217.078 96.168 217.298C95.7157 217.519 95.3132 217.829 94.985 218.21L94.5946 217.755C92.5525 215.356 88.8108 211.537 87.6757 214.421C86.6186 217.107 89.9159 220.59 92.2342 222.611L92.3784 222.737C90.8228 229.05 97.5976 234.207 101.273 236.437L101.748 236.725C96.7027 242.66 93.5856 253.782 93.5856 253.782L107.712 256.3C107.712 256.3 117.081 248.236 115.88 240.658H115.976C125.339 238.787 127.465 228.822 126.006 222.905L126.174 222.839C127.879 222.14 129.373 221.012 130.51 219.565C133.129 215.926 127.628 211.825 124.949 215.392Z" fill="black"/>
<path d="M96.8288 219.457L95.1952 224.284C95.1952 224.284 94.2763 223.636 93.1171 222.617C90.7988 220.596 87.5015 217.113 88.5586 214.427C89.6937 211.543 93.4354 215.35 95.4775 217.761C96.2823 218.714 96.8288 219.457 96.8288 219.457Z" fill="#6C63FF"/>
<path d="M100.312 216.705C99.8097 217.363 99.2724 217.993 98.7027 218.594C98.5619 217.754 98.4637 216.908 98.4084 216.058C98.2703 213.588 98.5345 210.308 101.015 211.039C103.495 211.771 101.802 214.727 100.312 216.705Z" fill="#6C63FF"/>
<path d="M121.622 217.467C121.574 219.056 121.417 220.321 121.417 220.321C120.69 219.756 120.002 219.143 119.357 218.486C117.49 216.549 115.423 213.564 118.318 211.765C121.333 209.9 121.706 214.307 121.622 217.467Z" fill="#6C63FF"/>
<path d="M131.375 219.547C130.234 220.994 128.735 222.12 127.027 222.815C126.554 223.019 126.069 223.194 125.574 223.336L123.628 220.608C123.834 219.707 124.103 218.822 124.432 217.958C124.765 217.041 125.226 216.175 125.802 215.386C128.504 211.825 133.994 215.926 131.375 219.547Z" fill="#6C63FF"/>
<path opacity="0.1" d="M95.4594 217.761C96.2823 218.714 96.8288 219.457 96.8288 219.457L95.1952 224.284C95.1952 224.284 94.2763 223.636 93.1171 222.617C93.3759 221.072 94.0157 219.615 94.979 218.378C95.1231 218.156 95.2973 217.946 95.4594 217.761Z" fill="black"/>
<path opacity="0.1" d="M100.312 216.705C99.8097 217.363 99.2724 217.993 98.7027 218.594C98.562 217.754 98.4637 216.908 98.4084 216.058C99.0954 216.069 99.7613 216.296 100.312 216.705Z" fill="black"/>
<path d="M108.408 235.867L104.3 237.666C104.3 237.666 103.405 237.234 102.114 236.431C97.7958 233.775 89.1171 227.102 94.9369 219.235C100.757 211.369 105.61 225.483 107.52 232.378C108.126 234.446 108.408 235.867 108.408 235.867Z" fill="#6C63FF"/>
<path opacity="0.1" d="M119.351 218.486C119.947 217.869 120.758 217.504 121.616 217.467C121.568 219.056 121.411 220.321 121.411 220.321C120.684 219.756 119.996 219.143 119.351 218.486Z" fill="black"/>
<path opacity="0.1" d="M127.027 222.815C126.554 223.019 126.069 223.194 125.574 223.336L123.628 220.608C123.834 219.707 124.103 218.822 124.432 217.958C125.7 218.702 126.625 220.519 127.027 222.815Z" fill="black"/>
<path d="M116.817 240.64L116.126 240.76C102.354 242.852 111.586 235.436 111.586 235.436C111.586 235.436 112.186 234.866 113.045 233.931C114.709 232.102 117.207 228.894 117.496 225.933C117.928 221.478 118.426 217.299 123.694 218.528C128.889 219.733 129.88 238.032 116.817 240.64Z" fill="#6C63FF"/>
<path d="M116.583 274.863H90.2703V281.77H116.583V274.863Z" fill="#474157"/>
<path d="M120.468 252.415H86.0901V276.518H120.468V252.415Z" fill="#474157"/>
<path opacity="0.1" d="M116.33 274.863H90.018V281.77H116.33V274.863Z" fill="black"/>
<path opacity="0.1" d="M120.36 252.421H85.982V276.523H120.36V252.421Z" fill="black"/>
<path d="M118.312 274.863H92V281.77H118.312V274.863Z" fill="#474157"/>
<path opacity="0.1" d="M107.544 232.408C108.144 234.47 108.432 235.891 108.432 235.891L104.324 237.69C104.324 237.69 103.429 237.258 102.138 236.455C103.748 234.398 105.562 232.858 107.544 232.408Z" fill="black"/>
<path opacity="0.1" d="M116.817 240.64L116.126 240.76C102.354 242.852 111.586 235.436 111.586 235.436C111.586 235.436 112.186 234.866 113.045 233.931C115.616 236.005 116.703 238.302 116.817 240.64Z" fill="black"/>
<path d="M94.4505 253.782C94.4505 253.782 102.162 226.202 112.979 234.716C123.796 243.23 108.577 256.3 108.577 256.3L94.4505 253.782Z" fill="#6C63FF"/>
<path opacity="0.1" d="M98.3423 224.422C98.82 224.422 99.2072 224.035 99.2072 223.558C99.2072 223.081 98.82 222.695 98.3423 222.695C97.8647 222.695 97.4775 223.081 97.4775 223.558C97.4775 224.035 97.8647 224.422 98.3423 224.422Z" fill="black"/>
<path opacity="0.1" d="M98.2703 228.457C98.7479 228.457 99.1352 228.07 99.1352 227.593C99.1352 227.117 98.7479 226.73 98.2703 226.73C97.7926 226.73 97.4054 227.117 97.4054 227.593C97.4054 228.07 97.7926 228.457 98.2703 228.457Z" fill="black"/>
<path opacity="0.1" d="M123.357 225.213C123.835 225.213 124.222 224.827 124.222 224.35C124.222 223.873 123.835 223.486 123.357 223.486C122.88 223.486 122.492 223.873 122.492 224.35C122.492 224.827 122.88 225.213 123.357 225.213Z" fill="black"/>
<path opacity="0.1" d="M103.171 245.868C103.649 245.868 104.036 245.481 104.036 245.005C104.036 244.528 103.649 244.141 103.171 244.141C102.694 244.141 102.306 244.528 102.306 245.005C102.306 245.481 102.694 245.868 103.171 245.868Z" fill="black"/>
<path opacity="0.1" d="M121.556 231.91C122.033 231.91 122.42 231.524 122.42 231.047C122.42 230.57 122.033 230.183 121.556 230.183C121.078 230.183 120.691 230.57 120.691 231.047C120.691 231.524 121.078 231.91 121.556 231.91Z" fill="black"/>
<path opacity="0.1" d="M112.619 240.832C113.096 240.832 113.483 240.445 113.483 239.968C113.483 239.491 113.096 239.105 112.619 239.105C112.141 239.105 111.754 239.491 111.754 239.968C111.754 240.445 112.141 240.832 112.619 240.832Z" fill="black"/>
<path opacity="0.1" d="M101.297 226.148C101.775 226.148 102.162 225.762 102.162 225.285C102.162 224.808 101.775 224.422 101.297 224.422C100.82 224.422 100.432 224.808 100.432 225.285C100.432 225.762 100.82 226.148 101.297 226.148Z" fill="black"/>
<path opacity="0.1" d="M120.979 227.809C121.457 227.809 121.844 227.423 121.844 226.946C121.844 226.469 121.457 226.082 120.979 226.082C120.501 226.082 120.114 226.469 120.114 226.946C120.114 227.423 120.501 227.809 120.979 227.809Z" fill="black"/>
<path opacity="0.1" d="M118.024 234.5C118.502 234.5 118.889 234.114 118.889 233.637C118.889 233.16 118.502 232.774 118.024 232.774C117.546 232.774 117.159 233.16 117.159 233.637C117.159 234.114 117.546 234.5 118.024 234.5Z" fill="black"/>
<path opacity="0.1" d="M108.937 245.22C109.415 245.22 109.802 244.834 109.802 244.357C109.802 243.88 109.415 243.494 108.937 243.494C108.459 243.494 108.072 243.88 108.072 244.357C108.072 244.834 108.459 245.22 108.937 245.22Z" fill="black"/>
<path opacity="0.1" d="M107.063 240.976C107.541 240.976 107.928 240.589 107.928 240.112C107.928 239.635 107.541 239.249 107.063 239.249C106.585 239.249 106.198 239.635 106.198 240.112C106.198 240.589 106.585 240.976 107.063 240.976Z" fill="black"/>
<path opacity="0.1" d="M102.595 231.407C103.072 231.407 103.459 231.02 103.459 230.543C103.459 230.066 103.072 229.68 102.595 229.68C102.117 229.68 101.73 230.066 101.73 230.543C101.73 231.02 102.117 231.407 102.595 231.407Z" fill="black"/>
<path opacity="0.1" d="M118.312 274.863H92V277.387H118.312V274.863Z" fill="black"/>
<path d="M122.198 252.415H87.8198V276.518H122.198V252.415Z" fill="#474157"/>
<path opacity="0.1" d="M110.09 249.106C110.568 249.106 110.955 248.719 110.955 248.242C110.955 247.765 110.568 247.379 110.09 247.379C109.612 247.379 109.225 247.765 109.225 248.242C109.225 248.719 109.612 249.106 110.09 249.106Z" fill="black"/>
<path opacity="0.1" d="M104.901 250.185C105.379 250.185 105.766 249.798 105.766 249.321C105.766 248.845 105.379 248.458 104.901 248.458C104.423 248.458 104.036 248.845 104.036 249.321C104.036 249.798 104.423 250.185 104.901 250.185Z" fill="black"/>
<path d="M187.321 344.526C187.321 344.526 191.604 350.12 185.345 358.561C179.087 367.003 173.934 374.15 176 379.402C176 379.402 185.453 363.718 193.147 363.502C200.841 363.286 195.784 353.963 187.321 344.526Z" fill="#6C63FF"/>
<path opacity="0.1" d="M187.321 344.526C187.696 345.065 187.991 345.654 188.198 346.276C195.7 355.078 199.7 363.292 192.486 363.502C185.766 363.712 177.706 375.703 175.772 378.701C175.838 378.935 175.916 379.168 176 379.39C176 379.39 185.453 363.706 193.147 363.49C200.841 363.274 195.784 353.963 187.321 344.526Z" fill="black"/>
<path d="M164.685 344.526C164.685 344.526 160.402 350.12 166.661 358.561C172.919 367.003 178.072 374.15 176 379.402C176 379.402 166.553 363.718 158.859 363.502C151.165 363.286 156.222 353.963 164.685 344.526Z" fill="#6C63FF"/>
<path opacity="0.1" d="M164.685 344.526C164.31 345.065 164.015 345.654 163.808 346.276C156.306 355.078 152.306 363.292 159.52 363.502C166.24 363.712 174.3 375.703 176.234 378.701C176.169 378.935 176.091 379.165 176 379.39C176 379.39 166.553 363.712 158.859 363.508C151.165 363.304 156.222 353.963 164.685 344.526Z" fill="black"/>
<defs>
<linearGradient id="paint0_linear" x1="407.309" y1="476.039" x2="407.309" y2="166.612" gradientUnits="userSpaceOnUse">
<stop stop-color="#808080" stop-opacity="0.25"/>
<stop offset="0.54" stop-color="#808080" stop-opacity="0.12"/>
<stop offset="1" stop-color="#808080" stop-opacity="0.1"/>
</linearGradient>
</defs>
</svg>
